<svg xmlns="http://www.w3.org/2000/svg" width="1120" height="710" viewBox="0 0 1120 710" fill="none"><rect x=".5" y=".5" width="1119" height="709" rx="19.5" fill="#fff"/><path d="M138.231 50.034v563.903m92.311-563.903v563.903m90.305-563.903v563.903m92.311-563.903v563.903m90.304-563.903v563.903m92.311-563.903v563.903m92.312-563.903v563.903m90.307-563.903v563.903m92.31-563.903v563.903m90.304-563.903v563.903m94.324-563.903v563.903m-916.097 1.003h915.087M139.233 502.561h915.087m-915.087-112.38h915.087M139.233 275.796h915.087m-915.087-112.38h915.087M139.233 49.03h915.087M139.233 614.94h915.087M138.231 50.034v563.903" stroke="#F0FBF7" stroke-width="2.007"/><path d="M121.735 647.501v1.49h-9.338v-1.304l4.674-5.203c.574-.64 1.019-1.182 1.332-1.626.32-.451.542-.853.667-1.205.13-.36.195-.726.195-1.098 0-.47-.098-.895-.293-1.274a2.214 2.214 0 00-.843-.921c-.373-.228-.823-.343-1.352-.343-.634 0-1.163.124-1.588.373a2.285 2.285 0 00-.94 1.019c-.209.437-.314.94-.314 1.509h-1.813c0-.804.177-1.539.529-2.205a3.906 3.906 0 011.568-1.587c.693-.399 1.545-.598 2.558-.598.901 0 1.672.16 2.312.48.64.314 1.13.758 1.47 1.333.346.568.519 1.234.519 1.999 0 .418-.072.842-.215 1.273-.138.425-.33.85-.578 1.274a9.822 9.822 0 01-.853 1.254c-.32.412-.663.817-1.029 1.215l-3.821 4.145h7.153zm10.896-6.78v2.175c0 1.169-.105 2.156-.314 2.959-.209.804-.509 1.45-.901 1.94s-.866.846-1.421 1.068c-.549.216-1.169.324-1.862.324a5.349 5.349 0 01-1.519-.206 3.607 3.607 0 01-1.254-.657 3.969 3.969 0 01-.94-1.195c-.262-.49-.461-1.084-.598-1.783-.137-.699-.206-1.516-.206-2.45v-2.175c0-1.17.105-2.15.314-2.94.215-.79.519-1.424.911-1.901a3.32 3.32 0 011.411-1.039c.555-.209 1.176-.313 1.862-.313.555 0 1.064.068 1.528.206.471.13.889.343 1.255.637.365.287.676.672.93 1.156.262.477.461 1.061.598 1.754.137.692.206 1.505.206 2.44zm-1.823 2.469v-2.773c0-.64-.039-1.202-.117-1.686a5.295 5.295 0 00-.324-1.254 2.464 2.464 0 00-.548-.842 1.936 1.936 0 00-.755-.471 2.723 2.723 0 00-.95-.157 2.58 2.58 0 00-1.147.245 2.06 2.06 0 00-.842.755c-.223.346-.392.8-.51 1.362s-.176 1.244-.176 2.048v2.773c0 .64.036 1.205.107 1.695.079.49.193.915.343 1.274.151.353.334.643.549.872.216.229.464.398.745.51.287.104.604.156.95.156.445 0 .833-.085 1.166-.254.333-.17.611-.435.833-.794.229-.366.399-.833.51-1.401.111-.575.166-1.261.166-2.058zm10.113-8.545v14.346h-1.813v-12.082l-3.655 1.333v-1.637l5.183-1.96h.285zm11.288 0v14.346h-1.813v-12.082l-3.655 1.333v-1.637l5.184-1.96h.284zm61.033 12.856v1.49h-9.339v-1.304l4.674-5.203c.575-.64 1.019-1.182 1.333-1.626.32-.451.542-.853.666-1.205.131-.36.196-.726.196-1.098 0-.47-.098-.895-.294-1.274a2.205 2.205 0 00-.842-.921c-.373-.228-.823-.343-1.353-.343-.633 0-1.162.124-1.587.373a2.287 2.287 0 00-.941 1.019c-.209.437-.313.94-.313 1.509h-1.813c0-.804.176-1.539.529-2.205a3.906 3.906 0 011.568-1.587c.692-.399 1.545-.598 2.557-.598.902 0 1.673.16 2.313.48.64.314 1.13.758 1.47 1.333.346.568.519 1.234.519 1.999 0 .418-.072.842-.215 1.273-.138.425-.33.85-.579 1.274a9.71 9.71 0 01-.852 1.254c-.32.412-.663.817-1.029 1.215l-3.821 4.145h7.153zm10.896-6.78v2.175c0 1.169-.105 2.156-.314 2.959-.209.804-.509 1.45-.901 1.94s-.866.846-1.421 1.068c-.549.216-1.169.324-1.862.324a5.344 5.344 0 01-1.519-.206 3.598 3.598 0 01-1.254-.657 3.987 3.987 0 01-.941-1.195c-.261-.49-.46-1.084-.597-1.783-.137-.699-.206-1.516-.206-2.45v-2.175c0-1.17.104-2.15.313-2.94.216-.79.52-1.424.912-1.901a3.32 3.32 0 011.411-1.039c.555-.209 1.176-.313 1.862-.313.555 0 1.064.068 1.528.206.47.13.889.343 1.254.637.366.287.676.672.931 1.156.262.477.461 1.061.598 1.754.137.692.206 1.505.206 2.44zm-1.823 2.469v-2.773c0-.64-.039-1.202-.117-1.686a5.295 5.295 0 00-.324-1.254 2.464 2.464 0 00-.548-.842 1.943 1.943 0 00-.755-.471 2.723 2.723 0 00-.95-.157c-.432 0-.814.082-1.147.245a2.069 2.069 0 00-.843.755c-.222.346-.392.8-.509 1.362-.118.562-.177 1.244-.177 2.048v2.773c0 .64.036 1.205.108 1.695.079.49.193.915.343 1.274.15.353.333.643.549.872.216.229.464.398.745.51.287.104.604.156.95.156.444 0 .833-.085 1.166-.254.333-.17.611-.435.833-.794.229-.366.399-.833.51-1.401.111-.575.166-1.261.166-2.058zm10.112-8.545v14.346h-1.812v-12.082l-3.655 1.333v-1.637l5.183-1.96h.284zm14.679 12.856v1.49h-9.338v-1.304l4.674-5.203c.575-.64 1.019-1.182 1.332-1.626.32-.451.543-.853.667-1.205.13-.36.196-.726.196-1.098 0-.47-.098-.895-.294-1.274a2.214 2.214 0 00-.843-.921c-.372-.228-.823-.343-1.352-.343-.634 0-1.163.124-1.588.373a2.285 2.285 0 00-.94 1.019c-.209.437-.314.94-.314 1.509h-1.813c0-.804.177-1.539.529-2.205a3.906 3.906 0 011.568-1.587c.693-.399 1.545-.598 2.558-.598.901 0 1.672.16 2.312.48.64.314 1.13.758 1.47 1.333.346.568.519 1.234.519 1.999 0 .418-.071.842-.215 1.273-.137.425-.33.85-.578 1.274a9.822 9.822 0 01-.853 1.254c-.32.412-.663.817-1.029 1.215l-3.821 4.145h7.153zm57.645 0v1.49h-9.338v-1.304l4.674-5.203c.575-.64 1.019-1.182 1.333-1.626.32-.451.542-.853.666-1.205.131-.36.196-.726.196-1.098 0-.47-.098-.895-.294-1.274a2.2 2.2 0 00-.843-.921c-.372-.228-.823-.343-1.352-.343-.633 0-1.163.124-1.587.373a2.287 2.287 0 00-.941 1.019c-.209.437-.313.94-.313 1.509h-1.813c0-.804.176-1.539.529-2.205a3.9 3.9 0 011.568-1.587c.692-.399 1.545-.598 2.557-.598.902 0 1.673.16 2.313.48.64.314 1.13.758 1.47 1.333.346.568.519 1.234.519 1.999a4 4 0 01-.216 1.273c-.137.425-.33.85-.578 1.274a9.917 9.917 0 01-.852 1.254c-.32.412-.663.817-1.029 1.215l-3.822 4.145h7.153zm10.896-6.78v2.175c0 1.169-.104 2.156-.313 2.959-.209.804-.51 1.45-.902 1.94-.391.49-.865.846-1.42 1.068-.549.216-1.17.324-1.862.324a5.344 5.344 0 01-1.519-.206 3.59 3.59 0 01-1.254-.657 3.971 3.971 0 01-.941-1.195c-.261-.49-.46-1.084-.598-1.783-.137-.699-.205-1.516-.205-2.45v-2.175c0-1.17.104-2.15.313-2.94.216-.79.52-1.424.912-1.901.391-.483.862-.83 1.411-1.039.555-.209 1.175-.313 1.861-.313.556 0 1.065.068 1.529.206.47.13.888.343 1.254.637.366.287.676.672.931 1.156.261.477.461 1.061.598 1.754.137.692.205 1.505.205 2.44zm-1.822 2.469v-2.773c0-.64-.039-1.202-.118-1.686a5.298 5.298 0 00-.323-1.254 2.48 2.48 0 00-.549-.842 1.932 1.932 0 00-.754-.471 2.725 2.725 0 00-.951-.157c-.431 0-.813.082-1.146.245a2.069 2.069 0 00-.843.755c-.222.346-.392.8-.509 1.362-.118.562-.177 1.244-.177 2.048v2.773c0 .64.036 1.205.108 1.695a5.6 5.6 0 00.343 1.274c.15.353.333.643.549.872.215.229.464.398.744.51.288.104.605.156.951.156.444 0 .833-.085 1.166-.254.333-.17.611-.435.833-.794.228-.366.398-.833.509-1.401.111-.575.167-1.261.167-2.058zm10.112-8.545v14.346h-1.813v-12.082l-3.654 1.333v-1.637l5.183-1.96h.284zm7.976 6.321h1.294c.633 0 1.156-.105 1.568-.314.418-.216.728-.506.93-.872.209-.372.314-.79.314-1.254 0-.549-.091-1.01-.274-1.382a1.846 1.846 0 00-.823-.843c-.366-.189-.83-.284-1.392-.284-.509 0-.96.102-1.352.304a2.219 2.219 0 00-.911.843c-.216.366-.324.797-.324 1.293h-1.812c0-.725.182-1.385.548-1.979a3.946 3.946 0 011.539-1.421c.666-.353 1.437-.529 2.312-.529.862 0 1.617.153 2.264.46a3.383 3.383 0 011.509 1.353c.359.594.539 1.335.539 2.224 0 .359-.085.745-.255 1.156a3.446 3.446 0 01-.774 1.137c-.347.353-.797.643-1.353.872-.555.222-1.221.333-1.998.333h-1.549v-1.097zm0 1.489v-1.088h1.549c.908 0 1.659.108 2.253.324.595.215 1.062.503 1.401.862.347.359.588.754.726 1.186.143.424.215.849.215 1.273 0 .667-.114 1.258-.343 1.774a3.617 3.617 0 01-.95 1.313c-.405.359-.882.63-1.431.813a5.636 5.636 0 01-1.793.275 5.68 5.68 0 01-1.754-.265 4.536 4.536 0 01-1.44-.764 3.57 3.57 0 01-.98-1.245c-.235-.496-.353-1.061-.353-1.695h1.813c0 .497.107.931.323 1.303.222.373.536.663.941.873.411.202.895.303 1.45.303.555 0 1.032-.094 1.431-.284.405-.196.715-.49.93-.882.223-.392.334-.885.334-1.479 0-.595-.125-1.081-.373-1.46a2.182 2.182 0 00-1.058-.853c-.451-.189-.983-.284-1.597-.284h-1.294zm64.348 5.046v1.49h-9.339v-1.304l4.674-5.203c.575-.64 1.02-1.182 1.333-1.626.32-.451.542-.853.666-1.205.131-.36.196-.726.196-1.098 0-.47-.098-.895-.294-1.274a2.205 2.205 0 00-.842-.921c-.373-.228-.823-.343-1.353-.343-.633 0-1.162.124-1.587.373a2.287 2.287 0 00-.941 1.019c-.209.437-.313.94-.313 1.509h-1.813c0-.804.176-1.539.529-2.205a3.906 3.906 0 011.568-1.587c.692-.399 1.545-.598 2.557-.598.902 0 1.673.16 2.313.48.64.314 1.13.758 1.47 1.333.346.568.519 1.234.519 1.999 0 .418-.072.842-.215 1.273-.138.425-.33.85-.579 1.274a9.71 9.71 0 01-.852 1.254c-.32.412-.663.817-1.029 1.215l-3.821 4.145h7.153zm10.896-6.78v2.175c0 1.169-.105 2.156-.314 2.959-.209.804-.509 1.45-.901 1.94s-.866.846-1.421 1.068c-.549.216-1.169.324-1.862.324a5.344 5.344 0 01-1.519-.206 3.598 3.598 0 01-1.254-.657 3.987 3.987 0 01-.941-1.195c-.261-.49-.46-1.084-.597-1.783-.137-.699-.206-1.516-.206-2.45v-2.175c0-1.17.104-2.15.314-2.94.215-.79.519-1.424.911-1.901a3.32 3.32 0 011.411-1.039c.555-.209 1.176-.313 1.862-.313.555 0 1.064.068 1.528.206a3.431 3.431 0 012.185 1.793c.262.477.461 1.061.598 1.754.137.692.206 1.505.206 2.44zm-1.823 2.469v-2.773c0-.64-.039-1.202-.117-1.686a5.295 5.295 0 00-.324-1.254 2.464 2.464 0 00-.548-.842 1.943 1.943 0 00-.755-.471 2.723 2.723 0 00-.95-.157c-.432 0-.814.082-1.147.245a2.069 2.069 0 00-.843.755c-.222.346-.392.8-.509 1.362-.118.562-.176 1.244-.176 2.048v2.773c0 .64.035 1.205.107 1.695.079.49.193.915.343 1.274.151.353.333.643.549.872.216.229.464.398.745.51.287.104.604.156.95.156.444 0 .833-.085 1.166-.254.333-.17.611-.435.833-.794.229-.366.399-.833.51-1.401.111-.575.166-1.261.166-2.058zm10.112-8.545v14.346h-1.812v-12.082l-3.655 1.333v-1.637l5.183-1.96h.284zm14.973 9.544v1.49h-10.308v-1.068l6.388-9.887h1.48l-1.587 2.861-4.224 6.604h8.251zm-1.989-9.465v14.267h-1.813v-14.267h1.813zm59.34 12.777v1.49h-9.338v-1.304l4.674-5.203c.575-.64 1.019-1.182 1.333-1.626.32-.451.542-.853.666-1.205.131-.36.196-.726.196-1.098 0-.47-.098-.895-.294-1.274a2.2 2.2 0 00-.843-.921c-.372-.228-.823-.343-1.352-.343-.633 0-1.163.124-1.587.373a2.287 2.287 0 00-.941 1.019c-.209.437-.313.94-.313 1.509h-1.813c0-.804.176-1.539.529-2.205a3.9 3.9 0 011.568-1.587c.692-.399 1.545-.598 2.557-.598.902 0 1.673.16 2.313.48.64.314 1.13.758 1.47 1.333.346.568.519 1.234.519 1.999a4 4 0 01-.216 1.273c-.137.425-.33.85-.578 1.274a9.917 9.917 0 01-.852 1.254c-.32.412-.663.817-1.029 1.215l-3.822 4.145h7.153zm10.897-6.78v2.175c0 1.169-.105 2.156-.314 2.959-.209.804-.51 1.45-.901 1.94-.392.49-.866.846-1.421 1.068-.549.216-1.17.324-1.862.324a5.344 5.344 0 01-1.519-.206 3.59 3.59 0 01-1.254-.657 3.987 3.987 0 01-.941-1.195c-.261-.49-.46-1.084-.597-1.783-.138-.699-.206-1.516-.206-2.45v-2.175c0-1.17.104-2.15.313-2.94.216-.79.52-1.424.912-1.901a3.32 3.32 0 011.411-1.039c.555-.209 1.175-.313 1.861-.313.556 0 1.065.068 1.529.206.47.13.888.343 1.254.637.366.287.676.672.931 1.156.261.477.461 1.061.598 1.754.137.692.206 1.505.206 2.44zm-1.823 2.469v-2.773c0-.64-.039-1.202-.118-1.686a5.25 5.25 0 00-.323-1.254 2.48 2.48 0 00-.549-.842 1.932 1.932 0 00-.754-.471 2.725 2.725 0 00-.951-.157c-.431 0-.813.082-1.146.245a2.069 2.069 0 00-.843.755c-.222.346-.392.8-.509 1.362-.118.562-.177 1.244-.177 2.048v2.773c0 .64.036 1.205.108 1.695a5.6 5.6 0 00.343 1.274c.15.353.333.643.549.872.215.229.464.398.744.51.288.104.605.156.951.156.444 0 .833-.085 1.166-.254.333-.17.611-.435.833-.794.229-.366.398-.833.509-1.401.111-.575.167-1.261.167-2.058zm10.112-8.545v14.346h-1.813v-12.082l-3.654 1.333v-1.637l5.183-1.96h.284zm7.624 7.555l-1.451-.372.716-7.104h7.319v1.675h-5.781l-.431 3.881c.261-.151.591-.291.99-.422.405-.13.868-.196 1.391-.196.66 0 1.251.115 1.774.343a3.64 3.64 0 011.332.961c.373.418.657.921.853 1.509.196.588.294 1.244.294 1.969 0 .686-.095 1.316-.284 1.891a4.256 4.256 0 01-.833 1.509 3.75 3.75 0 01-1.411.99c-.562.235-1.225.353-1.99.353-.574 0-1.12-.079-1.636-.235a4.244 4.244 0 01-1.372-.735 4.003 4.003 0 01-.98-1.235c-.248-.496-.405-1.078-.47-1.744h1.725c.078.535.235.986.47 1.352.235.366.542.643.921.833.385.183.833.274 1.342.274.432 0 .814-.075 1.147-.225.333-.15.614-.366.843-.647a2.9 2.9 0 00.519-1.019c.124-.398.186-.846.186-1.342a4.08 4.08 0 00-.186-1.255 2.865 2.865 0 00-.559-1.009 2.442 2.442 0 00-.891-.666 2.868 2.868 0 00-1.215-.245c-.608 0-1.068.082-1.382.245a5.236 5.236 0 00-.95.666zm64.699 5.301v1.49h-9.338v-1.304l4.674-5.203c.574-.64 1.019-1.182 1.332-1.626.32-.451.542-.853.666-1.205.131-.36.196-.726.196-1.098 0-.47-.098-.895-.294-1.274a2.205 2.205 0 00-.842-.921c-.373-.228-.823-.343-1.352-.343-.634 0-1.163.124-1.588.373a2.292 2.292 0 00-.941 1.019c-.209.437-.313.94-.313 1.509h-1.813c0-.804.177-1.539.529-2.205a3.906 3.906 0 011.568-1.587c.693-.399 1.545-.598 2.558-.598.901 0 1.672.16 2.312.48.64.314 1.13.758 1.47 1.333.346.568.519 1.234.519 1.999 0 .418-.072.842-.215 1.273-.138.425-.33.85-.579 1.274a9.71 9.71 0 01-.852 1.254c-.32.412-.663.817-1.029 1.215l-3.821 4.145h7.153zm10.896-6.78v2.175c0 1.169-.105 2.156-.314 2.959-.209.804-.509 1.45-.901 1.94s-.866.846-1.421 1.068c-.549.216-1.169.324-1.862.324a5.349 5.349 0 01-1.519-.206 3.607 3.607 0 01-1.254-.657 3.969 3.969 0 01-.94-1.195c-.262-.49-.461-1.084-.598-1.783-.137-.699-.206-1.516-.206-2.45v-2.175c0-1.17.105-2.15.314-2.94.215-.79.519-1.424.911-1.901a3.32 3.32 0 011.411-1.039c.555-.209 1.176-.313 1.862-.313.555 0 1.064.068 1.528.206a3.431 3.431 0 012.185 1.793c.262.477.461 1.061.598 1.754.137.692.206 1.505.206 2.44zm-1.823 2.469v-2.773c0-.64-.039-1.202-.117-1.686a5.295 5.295 0 00-.324-1.254 2.464 2.464 0 00-.548-.842 1.936 1.936 0 00-.755-.471 2.723 2.723 0 00-.95-.157 2.58 2.58 0 00-1.147.245 2.06 2.06 0 00-.842.755c-.223.346-.392.8-.51 1.362s-.176 1.244-.176 2.048v2.773c0 .64.036 1.205.107 1.695.079.49.193.915.343 1.274.151.353.333.643.549.872.216.229.464.398.745.51.287.104.604.156.95.156.444 0 .833-.085 1.166-.254.333-.17.611-.435.833-.794.229-.366.399-.833.51-1.401.111-.575.166-1.261.166-2.058zm10.113-8.545v14.346h-1.813v-12.082l-3.655 1.333v-1.637l5.183-1.96h.285zm12.287.059h.157v1.539h-.157c-.96 0-1.764.156-2.41.47-.647.307-1.16.722-1.539 1.244a5.112 5.112 0 00-.823 1.745 8.022 8.022 0 00-.245 1.969v2.097c0 .634.075 1.195.226 1.685.15.484.356.892.617 1.225.261.333.555.585.882.755.333.17.679.254 1.038.254.418 0 .791-.078 1.117-.235a2.36 2.36 0 00.824-.676c.228-.294.401-.64.519-1.038.117-.399.176-.837.176-1.313 0-.425-.052-.833-.157-1.225a3.243 3.243 0 00-.48-1.059 2.296 2.296 0 00-.813-.734c-.32-.183-.702-.275-1.146-.275-.503 0-.974.124-1.411.373a3.178 3.178 0 00-1.068.96c-.275.392-.432.82-.471 1.283l-.96-.009c.091-.732.261-1.356.509-1.872.255-.523.569-.947.941-1.274.379-.333.8-.575 1.264-.725.47-.157.967-.235 1.49-.235.712 0 1.326.134 1.842.402s.94.627 1.274 1.078c.333.444.578.947.734 1.509.164.555.245 1.126.245 1.714 0 .673-.094 1.304-.284 1.891a4.469 4.469 0 01-.852 1.549c-.373.444-.833.79-1.382 1.038-.549.249-1.185.373-1.911.373-.77 0-1.443-.157-2.018-.471a4.323 4.323 0 01-1.431-1.273 5.815 5.815 0 01-.852-1.764 6.953 6.953 0 01-.284-1.97v-.852c0-1.006.101-1.993.303-2.959a7.886 7.886 0 011.049-2.627c.503-.783 1.199-1.407 2.087-1.871.888-.464 2.022-.696 3.4-.696zm60.036 12.797v1.49h-9.338v-1.304l4.674-5.203c.575-.64 1.019-1.182 1.333-1.626.32-.451.542-.853.666-1.205.131-.36.196-.726.196-1.098 0-.47-.098-.895-.294-1.274a2.205 2.205 0 00-.842-.921c-.373-.228-.824-.343-1.353-.343-.633 0-1.162.124-1.587.373a2.287 2.287 0 00-.941 1.019c-.209.437-.313.94-.313 1.509h-1.813c0-.804.176-1.539.529-2.205a3.9 3.9 0 011.568-1.587c.692-.399 1.545-.598 2.557-.598.902 0 1.673.16 2.313.48.64.314 1.13.758 1.47 1.333.346.568.519 1.234.519 1.999a4 4 0 01-.216 1.273c-.137.425-.33.85-.578 1.274a9.812 9.812 0 01-.852 1.254c-.32.412-.663.817-1.029 1.215l-3.822 4.145h7.153zm10.897-6.78v2.175c0 1.169-.105 2.156-.314 2.959-.209.804-.509 1.45-.901 1.94s-.866.846-1.421 1.068c-.549.216-1.17.324-1.862.324a5.344 5.344 0 01-1.519-.206 3.59 3.59 0 01-1.254-.657 3.987 3.987 0 01-.941-1.195c-.261-.49-.46-1.084-.597-1.783-.138-.699-.206-1.516-.206-2.45v-2.175c0-1.17.104-2.15.313-2.94.216-.79.52-1.424.912-1.901a3.32 3.32 0 011.411-1.039c.555-.209 1.176-.313 1.861-.313.556 0 1.065.068 1.529.206.47.13.888.343 1.254.637.366.287.676.672.931 1.156.261.477.461 1.061.598 1.754.137.692.206 1.505.206 2.44zm-1.823 2.469v-2.773c0-.64-.039-1.202-.118-1.686a5.25 5.25 0 00-.323-1.254 2.48 2.48 0 00-.549-.842 1.932 1.932 0 00-.754-.471 2.725 2.725 0 00-.951-.157c-.431 0-.813.082-1.146.245a2.069 2.069 0 00-.843.755c-.222.346-.392.8-.509 1.362-.118.562-.177 1.244-.177 2.048v2.773c0 .64.036 1.205.108 1.695.079.49.193.915.343 1.274.15.353.333.643.549.872.215.229.464.398.745.51.287.104.604.156.95.156.444 0 .833-.085 1.166-.254.333-.17.611-.435.833-.794.229-.366.398-.833.509-1.401.112-.575.167-1.261.167-2.058zm10.112-8.545v14.346h-1.812v-12.082l-3.655 1.333v-1.637l5.183-1.96h.284zm14.551.079v1.019l-5.908 13.248h-1.911l5.899-12.778h-7.722v-1.489h9.642zm57.772 12.777v1.49h-9.338v-1.304l4.674-5.203c.575-.64 1.019-1.182 1.333-1.626.32-.451.542-.853.666-1.205.131-.36.196-.726.196-1.098 0-.47-.098-.895-.294-1.274a2.2 2.2 0 00-.843-.921c-.372-.228-.823-.343-1.352-.343-.634 0-1.163.124-1.587.373a2.287 2.287 0 00-.941 1.019c-.209.437-.314.94-.314 1.509h-1.812c0-.804.176-1.539.529-2.205a3.9 3.9 0 011.568-1.587c.692-.399 1.545-.598 2.557-.598.902 0 1.672.16 2.313.48.64.314 1.13.758 1.469 1.333.347.568.52 1.234.52 1.999a4 4 0 01-.216 1.273c-.137.425-.33.85-.578 1.274a9.917 9.917 0 01-.852 1.254c-.321.412-.663.817-1.029 1.215l-3.822 4.145h7.153zm10.896-6.78v2.175c0 1.169-.104 2.156-.313 2.959-.209.804-.51 1.45-.902 1.94a3.43 3.43 0 01-1.42 1.068c-.549.216-1.17.324-1.862.324a5.344 5.344 0 01-1.519-.206 3.59 3.59 0 01-1.254-.657 3.971 3.971 0 01-.941-1.195c-.261-.49-.46-1.084-.598-1.783-.137-.699-.205-1.516-.205-2.45v-2.175c0-1.17.104-2.15.313-2.94.216-.79.519-1.424.911-1.901.392-.483.863-.83 1.411-1.039.556-.209 1.176-.313 1.862-.313a5.35 5.35 0 011.529.206c.47.13.888.343 1.254.637.366.287.676.672.931 1.156.261.477.46 1.061.598 1.754.137.692.205 1.505.205 2.44zm-1.822 2.469v-2.773c0-.64-.039-1.202-.118-1.686a5.298 5.298 0 00-.323-1.254 2.48 2.48 0 00-.549-.842 1.932 1.932 0 00-.754-.471 2.725 2.725 0 00-.951-.157c-.431 0-.813.082-1.146.245a2.069 2.069 0 00-.843.755c-.222.346-.392.8-.509 1.362-.118.562-.177 1.244-.177 2.048v2.773c0 .64.036 1.205.108 1.695a5.6 5.6 0 00.343 1.274c.15.353.333.643.549.872.215.229.463.398.744.51.288.104.605.156.951.156.444 0 .833-.085 1.166-.254.333-.17.611-.435.833-.794.228-.366.398-.833.509-1.401.111-.575.167-1.261.167-2.058zm10.112-8.545v14.346h-1.813v-12.082l-3.655 1.333v-1.637l5.184-1.96h.284zm14.326 10.485c0 .869-.203 1.607-.608 2.215a3.791 3.791 0 01-1.626 1.371c-.68.314-1.447.471-2.303.471-.856 0-1.627-.157-2.313-.471a3.797 3.797 0 01-1.626-1.371c-.399-.608-.598-1.346-.598-2.215 0-.568.108-1.088.324-1.558.222-.477.532-.892.93-1.244a4.282 4.282 0 011.431-.814 5.47 5.47 0 011.832-.294c.876 0 1.656.17 2.342.51.686.333 1.225.794 1.617 1.382.399.587.598 1.26.598 2.018zm-1.823-.039c0-.529-.114-.996-.343-1.401a2.419 2.419 0 00-.96-.961c-.412-.228-.888-.343-1.431-.343-.555 0-1.035.115-1.44.343a2.4 2.4 0 00-.931.961c-.222.405-.333.872-.333 1.401 0 .549.108 1.019.323 1.411.222.385.536.682.941.892.412.202.898.303 1.46.303.562 0 1.045-.101 1.45-.303.405-.21.716-.507.931-.892.222-.392.333-.862.333-1.411zm1.49-6.653c0 .692-.183 1.316-.549 1.871a3.818 3.818 0 01-1.499 1.313c-.634.32-1.353.48-2.156.48-.817 0-1.545-.16-2.185-.48a3.744 3.744 0 01-1.49-1.313 3.37 3.37 0 01-.538-1.871c0-.83.179-1.536.538-2.117a3.578 3.578 0 011.5-1.333c.633-.307 1.355-.46 2.165-.46.817 0 1.542.153 2.176.46.633.307 1.13.752 1.489 1.333.366.581.549 1.287.549 2.117zm-1.813.029c0-.477-.101-.898-.304-1.264a2.217 2.217 0 00-.843-.862c-.359-.216-.777-.324-1.254-.324s-.895.102-1.254.304c-.353.196-.63.477-.833.843-.196.366-.294.8-.294 1.303 0 .49.098.918.294 1.284.203.365.483.65.843.852.359.203.777.304 1.254.304s.892-.101 1.244-.304c.36-.202.641-.487.843-.852.203-.366.304-.794.304-1.284zm60.143 9.034v1.49h-9.338v-1.304l4.674-5.203c.575-.64 1.019-1.182 1.332-1.626.321-.451.543-.853.667-1.205.13-.36.196-.726.196-1.098 0-.47-.098-.895-.294-1.274a2.214 2.214 0 00-.843-.921c-.372-.228-.823-.343-1.352-.343-.634 0-1.163.124-1.587.373a2.281 2.281 0 00-.941 1.019c-.209.437-.314.94-.314 1.509h-1.812c0-.804.176-1.539.529-2.205a3.897 3.897 0 011.567-1.587c.693-.399 1.545-.598 2.558-.598.901 0 1.672.16 2.312.48.641.314 1.131.758 1.47 1.333.346.568.52 1.234.52 1.999a4 4 0 01-.216 1.273c-.137.425-.33.85-.578 1.274a9.822 9.822 0 01-.853 1.254c-.32.412-.663.817-1.029 1.215l-3.821 4.145h7.153zm10.896-6.78v2.175c0 1.169-.104 2.156-.313 2.959-.209.804-.51 1.45-.902 1.94s-.865.846-1.421 1.068c-.548.216-1.169.324-1.861.324a5.344 5.344 0 01-1.519-.206 3.59 3.59 0 01-1.254-.657 3.971 3.971 0 01-.941-1.195c-.261-.49-.461-1.084-.598-1.783-.137-.699-.206-1.516-.206-2.45v-2.175c0-1.17.105-2.15.314-2.94.216-.79.519-1.424.911-1.901.392-.483.863-.83 1.411-1.039.555-.209 1.176-.313 1.862-.313a5.35 5.35 0 011.529.206c.47.13.888.343 1.254.637.366.287.676.672.931 1.156.261.477.46 1.061.597 1.754.138.692.206 1.505.206 2.44zm-1.822 2.469v-2.773c0-.64-.04-1.202-.118-1.686a5.346 5.346 0 00-.323-1.254 2.48 2.48 0 00-.549-.842 1.936 1.936 0 00-.755-.471 2.715 2.715 0 00-.95-.157c-.431 0-.813.082-1.146.245a2.056 2.056 0 00-.843.755c-.222.346-.392.8-.51 1.362-.117.562-.176 1.244-.176 2.048v2.773c0 .64.036 1.205.108 1.695.078.49.192.915.343 1.274.15.353.333.643.548.872.216.229.464.398.745.51.288.104.604.156.951.156.444 0 .832-.085 1.166-.254.333-.17.61-.435.833-.794.228-.366.398-.833.509-1.401.111-.575.167-1.261.167-2.058zm10.112-8.545v14.346h-1.813v-12.082l-3.655 1.333v-1.637l5.184-1.96h.284zm7.133 12.827h.187c1.045 0 1.894-.147 2.547-.441.653-.294 1.156-.689 1.509-1.186a4.42 4.42 0 00.725-1.675 9.42 9.42 0 00.196-1.931v-2.185c0-.646-.075-1.221-.225-1.724-.144-.503-.346-.925-.608-1.264a2.677 2.677 0 00-.872-.774 2.146 2.146 0 00-1.038-.265c-.418 0-.794.085-1.127.255a2.36 2.36 0 00-.833.696c-.222.3-.392.653-.51 1.058a4.751 4.751 0 00-.176 1.323c0 .424.052.836.157 1.234.104.399.264.758.48 1.078.215.32.483.575.803.764.327.183.709.275 1.147.275.405 0 .784-.079 1.136-.235a3.292 3.292 0 001.617-1.607c.17-.353.268-.722.294-1.108h.862c0 .543-.107 1.078-.323 1.607-.209.523-.503 1-.882 1.431a4.502 4.502 0 01-1.332 1.039 3.684 3.684 0 01-1.666.382c-.706 0-1.316-.137-1.832-.412a3.69 3.69 0 01-1.274-1.097 5.01 5.01 0 01-.735-1.529 6.444 6.444 0 01-.235-1.724c0-.68.094-1.317.284-1.911.189-.595.47-1.117.842-1.568a3.852 3.852 0 011.382-1.068c.555-.255 1.196-.382 1.921-.382.816 0 1.512.163 2.087.49a4.017 4.017 0 011.401 1.313c.366.549.634 1.166.803 1.852.17.686.255 1.391.255 2.116v.657c0 .738-.049 1.489-.147 2.253a8.972 8.972 0 01-.539 2.176 5.722 5.722 0 01-1.146 1.862c-.503.542-1.16.973-1.97 1.293-.803.314-1.796.47-2.978.47h-.187v-1.538zm65.189.029v1.49h-9.338v-1.304l4.674-5.203c.575-.64 1.019-1.182 1.332-1.626.32-.451.542-.853.667-1.205.13-.36.196-.726.196-1.098 0-.47-.098-.895-.294-1.274a2.214 2.214 0 00-.843-.921c-.372-.228-.823-.343-1.352-.343-.634 0-1.163.124-1.588.373a2.285 2.285 0 00-.94 1.019c-.209.437-.314.94-.314 1.509h-1.813c0-.804.177-1.539.529-2.205a3.906 3.906 0 011.568-1.587c.693-.399 1.545-.598 2.558-.598.901 0 1.672.16 2.312.48.64.314 1.13.758 1.47 1.333.346.568.519 1.234.519 1.999 0 .418-.072.842-.215 1.273-.137.425-.33.85-.578 1.274a9.822 9.822 0 01-.853 1.254c-.32.412-.663.817-1.029 1.215l-3.821 4.145h7.153zm10.896-6.78v2.175c0 1.169-.105 2.156-.314 2.959-.209.804-.509 1.45-.901 1.94s-.866.846-1.421 1.068c-.549.216-1.169.324-1.862.324a5.337 5.337 0 01-1.518-.206 3.603 3.603 0 01-1.255-.657 3.984 3.984 0 01-.94-1.195c-.262-.49-.461-1.084-.598-1.783-.137-.699-.206-1.516-.206-2.45v-2.175c0-1.17.105-2.15.314-2.94.215-.79.519-1.424.911-1.901a3.32 3.32 0 011.411-1.039c.555-.209 1.176-.313 1.862-.313.555 0 1.065.068 1.528.206.471.13.889.343 1.255.637.365.287.676.672.931 1.156.261.477.46 1.061.597 1.754.137.692.206 1.505.206 2.44zm-1.823 2.469v-2.773c0-.64-.039-1.202-.117-1.686a5.346 5.346 0 00-.323-1.254 2.48 2.48 0 00-.549-.842 1.936 1.936 0 00-.755-.471 2.72 2.72 0 00-.95-.157c-.431 0-.813.082-1.147.245a2.06 2.06 0 00-.842.755c-.222.346-.392.8-.51 1.362-.117.562-.176 1.244-.176 2.048v2.773c0 .64.036 1.205.108 1.695.078.49.192.915.342 1.274.151.353.334.643.549.872.216.229.464.398.745.51.287.104.604.156.95.156.445 0 .833-.085 1.166-.254a2.1 2.1 0 00.833-.794c.229-.366.399-.833.51-1.401.111-.575.166-1.261.166-2.058zm13.503 4.311v1.49h-9.338v-1.304l4.674-5.203c.575-.64 1.019-1.182 1.332-1.626.321-.451.543-.853.667-1.205.13-.36.196-.726.196-1.098 0-.47-.098-.895-.294-1.274a2.214 2.214 0 00-.843-.921c-.372-.228-.823-.343-1.352-.343-.634 0-1.163.124-1.587.373a2.281 2.281 0 00-.941 1.019c-.209.437-.314.94-.314 1.509h-1.812c0-.804.176-1.539.529-2.205a3.897 3.897 0 011.567-1.587c.693-.399 1.545-.598 2.558-.598.901 0 1.672.16 2.312.48.641.314 1.131.758 1.47 1.333.346.568.52 1.234.52 1.999a4 4 0 01-.216 1.273c-.137.425-.33.85-.578 1.274a9.822 9.822 0 01-.853 1.254c-.32.412-.663.817-1.029 1.215l-3.821 4.145h7.153zm10.896-6.78v2.175c0 1.169-.104 2.156-.313 2.959-.209.804-.51 1.45-.902 1.94s-.865.846-1.421 1.068c-.548.216-1.169.324-1.861.324a5.344 5.344 0 01-1.519-.206 3.59 3.59 0 01-1.254-.657 3.971 3.971 0 01-.941-1.195c-.261-.49-.461-1.084-.598-1.783-.137-.699-.206-1.516-.206-2.45v-2.175c0-1.17.105-2.15.314-2.94.216-.79.519-1.424.911-1.901.392-.483.863-.83 1.411-1.039.556-.209 1.176-.313 1.862-.313a5.35 5.35 0 011.529.206c.47.13.888.343 1.254.637.366.287.676.672.931 1.156.261.477.46 1.061.597 1.754.138.692.206 1.505.206 2.44zm-1.822 2.469v-2.773c0-.64-.04-1.202-.118-1.686a5.346 5.346 0 00-.323-1.254 2.48 2.48 0 00-.549-.842 1.936 1.936 0 00-.755-.471 2.715 2.715 0 00-.95-.157c-.431 0-.813.082-1.146.245a2.056 2.056 0 00-.843.755c-.222.346-.392.8-.51 1.362-.117.562-.176 1.244-.176 2.048v2.773c0 .64.036 1.205.108 1.695.078.49.192.915.343 1.274.15.353.333.643.548.872.216.229.464.398.745.51.288.104.604.156.951.156.444 0 .832-.085 1.166-.254.333-.17.61-.435.833-.794.228-.366.398-.833.509-1.401.111-.575.167-1.261.167-2.058zm39.066 4.311v1.49h-9.34v-1.304l4.67-5.203a19.24 19.24 0 001.34-1.626c.32-.451.54-.853.66-1.205.13-.36.2-.726.2-1.098 0-.47-.1-.895-.3-1.274a2.22 2.22 0 00-.84-.921c-.37-.228-.82-.343-1.35-.343-.64 0-1.16.124-1.59.373-.42.241-.73.581-.94 1.019-.21.437-.31.94-.31 1.509h-1.82c0-.804.18-1.539.53-2.205.36-.666.88-1.195 1.57-1.587.69-.399 1.55-.598 2.56-.598.9 0 1.67.16 2.31.48.64.314 1.13.758 1.47 1.333.35.568.52 1.234.52 1.999 0 .418-.07.842-.22 1.273-.13.425-.33.85-.57 1.274-.25.425-.53.843-.86 1.254-.32.412-.66.817-1.02 1.215l-3.83 4.145h7.16zm10.89-6.78v2.175c0 1.169-.1 2.156-.31 2.959-.21.804-.51 1.45-.9 1.94s-.87.846-1.42 1.068c-.55.216-1.17.324-1.86.324-.55 0-1.06-.069-1.52-.206a3.548 3.548 0 01-1.26-.657 4.048 4.048 0 01-.94-1.195c-.26-.49-.46-1.084-.6-1.783-.13-.699-.2-1.516-.2-2.45v-2.175c0-1.17.1-2.15.31-2.94.22-.79.52-1.424.91-1.901.39-.483.87-.83 1.41-1.039.56-.209 1.18-.313 1.87-.313.55 0 1.06.068 1.52.206.47.13.89.343 1.26.637.36.287.67.672.93 1.156.26.477.46 1.061.6 1.754.13.692.2 1.505.2 2.44zm-1.82 2.469v-2.773c0-.64-.04-1.202-.12-1.686a5.404 5.404 0 00-.32-1.254 2.452 2.452 0 00-.55-.842 1.932 1.932 0 00-.75-.471c-.28-.104-.6-.157-.95-.157-.44 0-.82.082-1.15.245-.33.157-.61.409-.84.755-.23.346-.4.8-.51 1.362-.12.562-.18 1.244-.18 2.048v2.773c0 .64.04 1.205.11 1.695.08.49.19.915.34 1.274.15.353.33.643.55.872.22.229.46.398.74.51.29.104.61.156.96.156.44 0 .83-.085 1.16-.254.33-.17.61-.435.83-.794.23-.366.4-.833.51-1.401.11-.575.17-1.261.17-2.058zm13.5 4.311v1.49h-9.34v-1.304l4.68-5.203c.57-.64 1.02-1.182 1.33-1.626.32-.451.54-.853.67-1.205.13-.36.19-.726.19-1.098 0-.47-.09-.895-.29-1.274a2.22 2.22 0 00-.84-.921c-.38-.228-.83-.343-1.36-.343-.63 0-1.16.124-1.58.373-.42.241-.73.581-.94 1.019-.21.437-.32.94-.32 1.509h-1.81c0-.804.18-1.539.53-2.205.35-.666.87-1.195 1.57-1.587.69-.399 1.54-.598 2.55-.598.91 0 1.68.16 2.32.48.64.314 1.13.758 1.47 1.333.34.568.52 1.234.52 1.999 0 .418-.08.842-.22 1.273-.14.425-.33.85-.58 1.274-.24.425-.52.843-.85 1.254-.32.412-.66.817-1.03 1.215l-3.82 4.145h7.15zm7.9-12.856v14.346h-1.81v-12.082l-3.66 1.333v-1.637l5.19-1.96h.28zm-937.96-20.012v2.175c0 1.169-.105 2.156-.314 2.959-.209.804-.51 1.45-.901 1.94-.392.49-.866.846-1.421 1.068-.549.216-1.17.324-1.862.324a5.344 5.344 0 01-1.519-.206 3.604 3.604 0 01-1.254-.656 4.004 4.004 0 01-.941-1.196c-.261-.49-.46-1.084-.597-1.783-.138-.699-.206-1.516-.206-2.45v-2.175c0-1.17.104-2.149.313-2.94.216-.79.52-1.424.912-1.901a3.318 3.318 0 011.411-1.038c.555-.21 1.175-.314 1.861-.314a5.38 5.38 0 011.529.206c.47.13.888.343 1.254.637.366.287.676.672.931 1.156.261.477.461 1.061.598 1.754.137.692.206 1.506.206 2.44zm-1.823 2.469v-2.773c0-.64-.039-1.202-.118-1.685a5.259 5.259 0 00-.323-1.255 2.48 2.48 0 00-.549-.842 1.932 1.932 0 00-.754-.471 2.726 2.726 0 00-.951-.156c-.431 0-.813.081-1.146.245a2.059 2.059 0 00-.843.754c-.222.346-.392.8-.509 1.362-.118.562-.177 1.244-.177 2.048v2.773c0 .64.036 1.205.108 1.695.079.49.193.915.343 1.274.15.353.333.643.549.872.215.229.464.399.745.51.287.104.604.156.95.156.444 0 .833-.085 1.166-.254.333-.17.611-.435.833-.794.229-.366.398-.833.509-1.401.112-.575.167-1.261.167-2.058zM53.983 501.727l-1.45-.373.715-7.104h7.32v1.676h-5.781l-.431 3.88c.261-.15.59-.291.99-.421a4.52 4.52 0 011.39-.196c.66 0 1.252.114 1.774.343.523.222.967.542 1.333.96.372.418.656.921.852 1.509.197.588.294 1.244.294 1.969a6.02 6.02 0 01-.284 1.892 4.25 4.25 0 01-.833 1.509 3.752 3.752 0 01-1.41.989c-.562.235-1.226.353-1.99.353-.575 0-1.12-.078-1.636-.235a4.2 4.2 0 01-1.372-.735 3.98 3.98 0 01-.98-1.235c-.248-.496-.405-1.077-.47-1.744h1.724c.079.536.236.987.47 1.352a2.3 2.3 0 00.922.833c.385.183.833.275 1.342.275a2.75 2.75 0 001.147-.226c.333-.15.614-.366.842-.646.229-.281.402-.621.52-1.019a4.51 4.51 0 00.186-1.343 4.07 4.07 0 00-.186-1.254 2.861 2.861 0 00-.559-1.009 2.443 2.443 0 00-.891-.667 2.867 2.867 0 00-1.215-.245c-.608 0-1.069.082-1.382.245a5.318 5.318 0 00-.95.667zm17.952-1.48v2.175c0 1.17-.105 2.156-.314 2.96-.209.803-.51 1.45-.901 1.94-.392.49-.866.846-1.421 1.068-.549.215-1.17.323-1.862.323a5.343 5.343 0 01-1.519-.206 3.61 3.61 0 01-1.254-.656 3.983 3.983 0 01-.94-1.196c-.262-.49-.461-1.084-.598-1.783-.138-.699-.206-1.516-.206-2.45v-2.175c0-1.169.104-2.149.313-2.94.216-.79.52-1.424.912-1.901a3.32 3.32 0 011.41-1.038 5.252 5.252 0 011.862-.314 5.38 5.38 0 011.529.206c.47.131.888.343 1.254.637.366.287.676.673.931 1.156.261.477.46 1.062.598 1.754.137.693.206 1.506.206 2.44zm-1.823 2.469v-2.773c0-.64-.04-1.202-.118-1.685a5.289 5.289 0 00-.323-1.254 2.478 2.478 0 00-.549-.843 1.933 1.933 0 00-.754-.47 2.7 2.7 0 00-.95-.157c-.432 0-.814.081-1.147.245a2.063 2.063 0 00-.843.754c-.222.347-.392.801-.51 1.362-.117.562-.176 1.245-.176 2.048v2.773c0 .64.036 1.206.108 1.695.079.49.193.915.343 1.274.15.353.333.644.549.872.215.229.464.399.745.51.287.104.604.157.95.157.444 0 .833-.085 1.166-.255.333-.17.61-.435.833-.794.229-.366.398-.833.51-1.401.11-.575.166-1.261.166-2.058zm13.11-2.469v2.175c0 1.17-.104 2.156-.313 2.96-.209.803-.51 1.45-.901 1.94-.392.49-.866.846-1.421 1.068-.549.215-1.17.323-1.862.323a5.343 5.343 0 01-1.519-.206 3.61 3.61 0 01-1.254-.656 3.983 3.983 0 01-.94-1.196c-.262-.49-.461-1.084-.598-1.783-.138-.699-.206-1.516-.206-2.45v-2.175c0-1.169.104-2.149.313-2.94.216-.79.52-1.424.912-1.901a3.32 3.32 0 011.41-1.038 5.252 5.252 0 011.862-.314 5.38 5.38 0 011.53.206c.47.131.888.343 1.253.637.366.287.676.673.931 1.156.261.477.46 1.062.598 1.754.137.693.206 1.506.206 2.44zm-1.822 2.469v-2.773c0-.64-.04-1.202-.118-1.685a5.289 5.289 0 00-.323-1.254 2.478 2.478 0 00-.549-.843 1.933 1.933 0 00-.754-.47 2.7 2.7 0 00-.95-.157c-.432 0-.814.081-1.147.245a2.063 2.063 0 00-.843.754c-.222.347-.392.801-.51 1.362-.117.562-.176 1.245-.176 2.048v2.773c0 .64.036 1.206.108 1.695.079.49.193.915.343 1.274.15.353.333.644.549.872.216.229.464.399.745.51.287.104.604.157.95.157.444 0 .833-.085 1.166-.255.333-.17.61-.435.833-.794.229-.366.398-.833.51-1.401.11-.575.166-1.261.166-2.058zm13.11-2.469v2.175c0 1.17-.104 2.156-.313 2.96-.209.803-.51 1.45-.901 1.94-.392.49-.866.846-1.421 1.068-.549.215-1.17.323-1.862.323a5.343 5.343 0 01-1.519-.206 3.61 3.61 0 01-1.254-.656 3.983 3.983 0 01-.94-1.196c-.262-.49-.461-1.084-.598-1.783-.137-.699-.206-1.516-.206-2.45v-2.175c0-1.169.105-2.149.314-2.94.215-.79.519-1.424.91-1.901a3.32 3.32 0 011.412-1.038 5.252 5.252 0 011.862-.314 5.38 5.38 0 011.528.206c.47.131.889.343 1.254.637.366.287.677.673.931 1.156.262.477.46 1.062.598 1.754.137.693.206 1.506.206 2.44zm-1.822 2.469v-2.773c0-.64-.039-1.202-.117-1.685a5.289 5.289 0 00-.324-1.254 2.477 2.477 0 00-.549-.843 1.931 1.931 0 00-.754-.47 2.7 2.7 0 00-.95-.157c-.432 0-.814.081-1.147.245a2.063 2.063 0 00-.843.754c-.222.347-.392.801-.51 1.362-.117.562-.175 1.245-.175 2.048v2.773c0 .64.035 1.206.107 1.695.079.49.193.915.343 1.274.15.353.333.644.549.872.216.229.464.399.745.51.287.104.604.157.95.157.444 0 .833-.085 1.166-.255.333-.17.611-.435.833-.794.229-.366.399-.833.51-1.401.11-.575.166-1.261.166-2.058zm13.111-2.469v2.175c0 1.17-.105 2.156-.314 2.96-.209.803-.509 1.45-.901 1.94s-.866.846-1.421 1.068c-.549.215-1.169.323-1.862.323a5.343 5.343 0 01-1.519-.206 3.61 3.61 0 01-1.254-.656 3.983 3.983 0 01-.94-1.196c-.262-.49-.461-1.084-.598-1.783-.137-.699-.206-1.516-.206-2.45v-2.175c0-1.169.105-2.149.314-2.94.215-.79.519-1.424.91-1.901a3.32 3.32 0 011.412-1.038 5.253 5.253 0 011.862-.314c.555 0 1.064.069 1.528.206.471.131.889.343 1.254.637.366.287.677.673.931 1.156.262.477.461 1.062.598 1.754.137.693.206 1.506.206 2.44zm-1.823 2.469v-2.773c0-.64-.039-1.202-.117-1.685a5.282 5.282 0 00-.324-1.254 2.468 2.468 0 00-.548-.843 1.933 1.933 0 00-.755-.47 2.7 2.7 0 00-.95-.157c-.431 0-.814.081-1.147.245a2.063 2.063 0 00-.843.754c-.222.347-.391.801-.509 1.362-.118.562-.176 1.245-.176 2.048v2.773c0 .64.036 1.206.107 1.695.079.49.193.915.343 1.274.15.353.334.644.55.872.215.229.463.399.744.51.287.104.604.157.95.157.444 0 .833-.085 1.166-.255.333-.17.611-.435.833-.794.229-.366.399-.833.51-1.401.111-.575.166-1.261.166-2.058zM47.415 381.792v14.346h-1.813v-12.082l-3.655 1.333v-1.637l5.183-1.96h.285zm14.286 6.076v2.175c0 1.169-.104 2.156-.313 2.959-.21.804-.51 1.45-.902 1.94s-.865.846-1.42 1.068c-.55.216-1.17.324-1.862.324a5.343 5.343 0 01-1.52-.206 3.596 3.596 0 01-1.253-.657 3.978 3.978 0 01-.941-1.195c-.261-.49-.46-1.084-.598-1.783-.137-.699-.206-1.516-.206-2.45v-2.175c0-1.17.105-2.15.314-2.94.215-.79.52-1.424.911-1.901a3.32 3.32 0 011.411-1.039c.555-.209 1.176-.313 1.862-.313a5.35 5.35 0 011.529.206c.47.13.888.343 1.254.637.366.287.676.672.93 1.156.262.477.461 1.061.598 1.754.138.692.206 1.505.206 2.44zm-1.822 2.469v-2.773c0-.64-.04-1.202-.118-1.686a5.302 5.302 0 00-.323-1.254 2.474 2.474 0 00-.55-.842 1.934 1.934 0 00-.754-.471 2.723 2.723 0 00-.95-.157c-.431 0-.813.082-1.146.245a2.065 2.065 0 00-.843.755c-.222.346-.392.8-.51 1.362-.117.562-.176 1.244-.176 2.048v2.773c0 .64.036 1.205.108 1.695.078.49.192.915.343 1.274.15.353.333.643.548.872.216.229.464.398.745.509.288.105.604.157.95.157.445 0 .833-.085 1.167-.254.333-.17.61-.435.833-.794.228-.366.398-.833.509-1.401.111-.575.167-1.261.167-2.058zm13.11-2.469v2.175c0 1.169-.104 2.156-.313 2.959-.21.804-.51 1.45-.902 1.94s-.865.846-1.42 1.068c-.55.216-1.17.324-1.862.324a5.343 5.343 0 01-1.52-.206 3.596 3.596 0 01-1.253-.657 3.978 3.978 0 01-.941-1.195c-.261-.49-.46-1.084-.598-1.783-.137-.699-.206-1.516-.206-2.45v-2.175c0-1.17.105-2.15.314-2.94.216-.79.52-1.424.911-1.901.392-.483.863-.83 1.411-1.039.556-.209 1.176-.313 1.862-.313a5.35 5.35 0 011.529.206c.47.13.888.343 1.254.637.366.287.676.672.93 1.156.262.477.461 1.061.599 1.754.137.692.205 1.505.205 2.44zm-1.822 2.469v-2.773c0-.64-.04-1.202-.118-1.686a5.302 5.302 0 00-.323-1.254 2.474 2.474 0 00-.549-.842 1.934 1.934 0 00-.755-.471 2.723 2.723 0 00-.95-.157c-.431 0-.813.082-1.146.245a2.065 2.065 0 00-.843.755c-.222.346-.392.8-.51 1.362-.117.562-.176 1.244-.176 2.048v2.773c0 .64.036 1.205.108 1.695.078.49.192.915.343 1.274.15.353.333.643.548.872.216.229.464.398.745.509.288.105.604.157.95.157.445 0 .834-.085 1.167-.254.333-.17.61-.435.833-.794.228-.366.398-.833.51-1.401.11-.575.166-1.261.166-2.058zm13.11-2.469v2.175c0 1.169-.104 2.156-.313 2.959-.21.804-.51 1.45-.902 1.94s-.865.846-1.42 1.068c-.55.216-1.17.324-1.862.324a5.343 5.343 0 01-1.519-.206 3.596 3.596 0 01-1.254-.657 3.978 3.978 0 01-.94-1.195c-.262-.49-.461-1.084-.599-1.783-.137-.699-.205-1.516-.205-2.45v-2.175c0-1.17.104-2.15.313-2.94.216-.79.52-1.424.911-1.901.392-.483.863-.83 1.411-1.039.556-.209 1.176-.313 1.862-.313a5.35 5.35 0 011.529.206c.47.13.888.343 1.254.637.366.287.676.672.93 1.156.262.477.461 1.061.599 1.754.137.692.205 1.505.205 2.44zm-1.822 2.469v-2.773c0-.64-.04-1.202-.118-1.686a5.302 5.302 0 00-.323-1.254 2.475 2.475 0 00-.549-.842 1.934 1.934 0 00-.754-.471 2.723 2.723 0 00-.95-.157c-.432 0-.814.082-1.147.245a2.065 2.065 0 00-.843.755c-.222.346-.392.8-.51 1.362-.117.562-.176 1.244-.176 2.048v2.773c0 .64.036 1.205.108 1.695a5.6 5.6 0 00.343 1.274c.15.353.333.643.549.872.215.229.463.398.744.509.288.105.605.157.95.157.445 0 .834-.085 1.167-.254.333-.17.61-.435.833-.794.228-.366.398-.833.51-1.401.11-.575.166-1.261.166-2.058zm13.11-2.469v2.175c0 1.169-.104 2.156-.313 2.959-.21.804-.51 1.45-.902 1.94-.391.49-.865.846-1.42 1.068-.55.216-1.17.324-1.862.324a5.343 5.343 0 01-1.519-.206 3.596 3.596 0 01-1.254-.657 3.978 3.978 0 01-.94-1.195c-.262-.49-.461-1.084-.599-1.783-.137-.699-.205-1.516-.205-2.45v-2.175c0-1.17.104-2.15.313-2.94.216-.79.52-1.424.911-1.901.392-.483.863-.83 1.411-1.039.556-.209 1.176-.313 1.862-.313a5.35 5.35 0 011.529.206c.47.13.888.343 1.254.637.366.287.676.672.931 1.156.261.477.46 1.061.598 1.754.137.692.206 1.505.206 2.44zm-1.822 2.469v-2.773c0-.64-.04-1.202-.118-1.686a5.302 5.302 0 00-.323-1.254 2.475 2.475 0 00-.549-.842 1.934 1.934 0 00-.754-.471 2.723 2.723 0 00-.95-.157c-.432 0-.814.082-1.147.245a2.065 2.065 0 00-.843.755c-.222.346-.392.8-.51 1.362-.117.562-.176 1.244-.176 2.048v2.773c0 .64.036 1.205.108 1.695a5.6 5.6 0 00.343 1.274c.15.353.333.643.549.872.215.229.463.398.744.509.288.105.605.157.95.157.445 0 .834-.085 1.167-.254.333-.17.61-.435.833-.794.228-.366.398-.833.51-1.401.11-.575.166-1.261.166-2.058zm13.111-2.469v2.175c0 1.169-.105 2.156-.314 2.959-.209.804-.51 1.45-.901 1.94-.392.49-.866.846-1.421 1.068-.549.216-1.17.324-1.862.324a5.344 5.344 0 01-1.519-.206 3.593 3.593 0 01-1.254-.657 3.978 3.978 0 01-.94-1.195c-.262-.49-.461-1.084-.599-1.783-.137-.699-.205-1.516-.205-2.45v-2.175c0-1.17.104-2.15.313-2.94.216-.79.52-1.424.912-1.901a3.32 3.32 0 011.411-1.039c.555-.209 1.175-.313 1.861-.313.556 0 1.065.068 1.529.206.47.13.888.343 1.254.637.366.287.676.672.931 1.156.261.477.461 1.061.598 1.754.137.692.206 1.505.206 2.44zm-1.823 2.469v-2.773c0-.64-.039-1.202-.118-1.686a5.25 5.25 0 00-.323-1.254 2.48 2.48 0 00-.549-.842 1.932 1.932 0 00-.754-.471 2.725 2.725 0 00-.951-.157c-.431 0-.813.082-1.146.245a2.069 2.069 0 00-.843.755c-.222.346-.392.8-.51 1.362-.117.562-.176 1.244-.176 2.048v2.773c0 .64.036 1.205.108 1.695a5.6 5.6 0 00.343 1.274c.15.353.333.643.549.872.215.229.464.398.744.509.288.105.605.157.951.157.444 0 .833-.085 1.166-.254.333-.17.611-.435.833-.794.229-.366.398-.833.509-1.401.111-.575.167-1.261.167-2.058zM47.415 269.413v14.345h-1.813v-12.082l-3.655 1.333v-1.637l5.183-1.959h.285zm7.623 7.554l-1.45-.372.715-7.104h7.32v1.675h-5.781l-.432 3.881a5.43 5.43 0 01.99-.422 4.55 4.55 0 011.392-.196c.66 0 1.25.115 1.773.343.523.223.967.543 1.333.961.372.418.656.921.852 1.509.196.588.294 1.244.294 1.969a6.02 6.02 0 01-.284 1.891 4.25 4.25 0 01-.833 1.509 3.743 3.743 0 01-1.41.99c-.563.235-1.226.353-1.99.353-.575 0-1.12-.079-1.636-.235a4.238 4.238 0 01-1.372-.735 3.979 3.979 0 01-.98-1.235c-.248-.496-.405-1.078-.47-1.744h1.724c.078.536.235.986.47 1.352a2.3 2.3 0 00.922.833c.385.183.832.274 1.342.274.431 0 .813-.075 1.146-.225.334-.15.614-.366.843-.647.229-.281.402-.62.52-1.019a4.54 4.54 0 00.186-1.342 4.07 4.07 0 00-.187-1.254 2.874 2.874 0 00-.558-1.01 2.452 2.452 0 00-.892-.666 2.867 2.867 0 00-1.215-.245c-.607 0-1.068.082-1.381.245a5.258 5.258 0 00-.95.666zm17.951-1.479v2.175c0 1.169-.104 2.156-.313 2.959-.21.804-.51 1.45-.902 1.94s-.865.846-1.42 1.068c-.55.216-1.17.324-1.862.324a5.343 5.343 0 01-1.52-.206 3.61 3.61 0 01-1.253-.656 3.995 3.995 0 01-.941-1.196c-.261-.49-.46-1.084-.598-1.783-.137-.699-.206-1.516-.206-2.45v-2.175c0-1.17.105-2.149.314-2.94.216-.79.52-1.424.911-1.901a3.33 3.33 0 011.411-1.039c.556-.209 1.176-.313 1.862-.313a5.38 5.38 0 011.529.206c.47.13.888.343 1.254.637.366.287.676.672.93 1.156.262.477.461 1.061.599 1.754.137.692.205 1.506.205 2.44zm-1.822 2.469v-2.773c0-.64-.04-1.202-.118-1.685a5.31 5.31 0 00-.323-1.255 2.474 2.474 0 00-.549-.842 1.934 1.934 0 00-.755-.471 2.723 2.723 0 00-.95-.156c-.431 0-.813.081-1.146.245a2.056 2.056 0 00-.843.754c-.222.346-.392.8-.51 1.362-.117.562-.176 1.244-.176 2.048v2.773c0 .64.036 1.205.108 1.695.078.49.192.915.343 1.274.15.353.333.643.548.872.216.229.464.399.745.51.288.104.604.156.95.156.445 0 .834-.085 1.167-.254.333-.17.61-.435.833-.794.228-.366.398-.833.51-1.401.11-.575.166-1.261.166-2.058zm13.11-2.469v2.175c0 1.169-.104 2.156-.313 2.959-.21.804-.51 1.45-.902 1.94s-.865.846-1.42 1.068c-.55.216-1.17.324-1.862.324a5.343 5.343 0 01-1.519-.206 3.61 3.61 0 01-1.254-.656 3.995 3.995 0 01-.94-1.196c-.262-.49-.461-1.084-.599-1.783-.137-.699-.205-1.516-.205-2.45v-2.175c0-1.17.104-2.149.313-2.94.216-.79.52-1.424.911-1.901a3.33 3.33 0 011.411-1.039c.556-.209 1.176-.313 1.862-.313a5.38 5.38 0 011.529.206c.47.13.888.343 1.254.637.366.287.676.672.93 1.156.262.477.461 1.061.599 1.754.137.692.205 1.506.205 2.44zm-1.822 2.469v-2.773c0-.64-.04-1.202-.118-1.685a5.31 5.31 0 00-.323-1.255 2.475 2.475 0 00-.549-.842 1.934 1.934 0 00-.754-.471 2.723 2.723 0 00-.95-.156c-.432 0-.814.081-1.147.245a2.056 2.056 0 00-.843.754c-.222.346-.392.8-.51 1.362-.117.562-.176 1.244-.176 2.048v2.773c0 .64.036 1.205.108 1.695a5.6 5.6 0 00.343 1.274c.15.353.333.643.549.872.215.229.463.399.744.51.288.104.605.156.95.156.445 0 .834-.085 1.167-.254.333-.17.61-.435.833-.794.228-.366.398-.833.51-1.401.11-.575.166-1.261.166-2.058zm13.11-2.469v2.175c0 1.169-.104 2.156-.313 2.959-.21.804-.51 1.45-.902 1.94-.391.49-.865.846-1.42 1.068-.55.216-1.17.324-1.862.324a5.343 5.343 0 01-1.519-.206 3.61 3.61 0 01-1.254-.656 3.996 3.996 0 01-.94-1.196c-.262-.49-.461-1.084-.599-1.783-.137-.699-.205-1.516-.205-2.45v-2.175c0-1.17.104-2.149.313-2.94.216-.79.52-1.424.911-1.901a3.33 3.33 0 011.411-1.039c.556-.209 1.176-.313 1.862-.313a5.38 5.38 0 011.529.206c.47.13.888.343 1.254.637.366.287.676.672.931 1.156.261.477.46 1.061.598 1.754.137.692.206 1.506.206 2.44zm-1.822 2.469v-2.773c0-.64-.04-1.202-.118-1.685a5.31 5.31 0 00-.323-1.255 2.475 2.475 0 00-.549-.842 1.934 1.934 0 00-.754-.471 2.723 2.723 0 00-.95-.156c-.432 0-.814.081-1.147.245a2.056 2.056 0 00-.843.754c-.222.346-.392.8-.51 1.362-.117.562-.176 1.244-.176 2.048v2.773c0 .64.036 1.205.108 1.695a5.6 5.6 0 00.343 1.274c.15.353.333.643.549.872.215.229.463.399.744.51.288.104.605.156.95.156.445 0 .834-.085 1.167-.254.333-.17.61-.435.833-.794.228-.366.398-.833.51-1.401.11-.575.166-1.261.166-2.058zm13.111-2.469v2.175c0 1.169-.105 2.156-.314 2.959-.209.804-.51 1.45-.901 1.94-.392.49-.866.846-1.421 1.068-.549.216-1.17.324-1.862.324a5.344 5.344 0 01-1.519-.206 3.608 3.608 0 01-1.254-.656 3.996 3.996 0 01-.94-1.196c-.262-.49-.461-1.084-.599-1.783-.137-.699-.205-1.516-.205-2.45v-2.175c0-1.17.104-2.149.313-2.94.216-.79.52-1.424.912-1.901a3.329 3.329 0 011.411-1.039c.555-.209 1.175-.313 1.861-.313a5.38 5.38 0 011.529.206c.47.13.888.343 1.254.637.366.287.676.672.931 1.156.261.477.461 1.061.598 1.754.137.692.206 1.506.206 2.44zm-1.823 2.469v-2.773c0-.64-.039-1.202-.118-1.685a5.259 5.259 0 00-.323-1.255 2.48 2.48 0 00-.549-.842 1.932 1.932 0 00-.754-.471 2.726 2.726 0 00-.951-.156c-.431 0-.813.081-1.146.245a2.059 2.059 0 00-.843.754c-.222.346-.392.8-.51 1.362-.117.562-.176 1.244-.176 2.048v2.773c0 .64.036 1.205.108 1.695a5.6 5.6 0 00.343 1.274c.15.353.333.643.549.872.215.229.464.399.744.51.288.104.605.156.951.156.444 0 .833-.085 1.166-.254.333-.17.611-.435.833-.794.229-.366.398-.833.509-1.401.111-.575.167-1.261.167-2.058zM50.805 169.89v1.489h-9.338v-1.303l4.674-5.203c.575-.641 1.019-1.183 1.333-1.627.32-.451.542-.852.666-1.205.13-.36.196-.725.196-1.098 0-.47-.098-.895-.294-1.274a2.207 2.207 0 00-.843-.921c-.372-.228-.823-.343-1.352-.343-.634 0-1.163.125-1.587.373a2.286 2.286 0 00-.941 1.019c-.21.438-.314.941-.314 1.509h-1.813c0-.804.177-1.539.53-2.205a3.901 3.901 0 011.567-1.587c.693-.399 1.545-.598 2.558-.598.901 0 1.672.16 2.312.48.64.314 1.13.758 1.47 1.333.346.568.52 1.234.52 1.999 0 .418-.072.842-.216 1.274-.137.424-.33.849-.578 1.273a9.907 9.907 0 01-.853 1.255c-.32.411-.663.816-1.029 1.215l-3.821 4.145h7.153zm10.896-6.781v2.175c0 1.169-.104 2.156-.313 2.959-.21.804-.51 1.451-.902 1.94a3.44 3.44 0 01-1.42 1.069c-.55.215-1.17.323-1.862.323a5.343 5.343 0 01-1.52-.206 3.61 3.61 0 01-1.253-.656 3.983 3.983 0 01-.941-1.196c-.261-.49-.46-1.084-.598-1.783-.137-.699-.206-1.516-.206-2.45v-2.175c0-1.17.105-2.149.314-2.94.215-.79.52-1.424.911-1.901a3.32 3.32 0 011.411-1.038 5.252 5.252 0 011.862-.314 5.38 5.38 0 011.529.206c.47.13.888.343 1.254.637.366.287.676.673.93 1.156.262.477.461 1.061.598 1.754.138.692.206 1.506.206 2.44zm-1.822 2.469v-2.773c0-.64-.04-1.202-.118-1.685a5.31 5.31 0 00-.323-1.255 2.474 2.474 0 00-.55-.842 1.934 1.934 0 00-.754-.471 2.723 2.723 0 00-.95-.156c-.431 0-.813.081-1.146.245a2.056 2.056 0 00-.843.754c-.222.346-.392.8-.51 1.362-.117.562-.176 1.245-.176 2.048v2.773c0 .64.036 1.205.108 1.695.078.49.192.915.343 1.274.15.353.333.644.548.872.216.229.464.399.745.51.288.104.604.156.95.156.445 0 .833-.084 1.167-.254.333-.17.61-.435.833-.794.228-.366.398-.833.509-1.401.111-.575.167-1.261.167-2.058zm13.11-2.469v2.175c0 1.169-.104 2.156-.313 2.959-.21.804-.51 1.451-.902 1.94a3.44 3.44 0 01-1.42 1.069c-.55.215-1.17.323-1.862.323a5.343 5.343 0 01-1.52-.206 3.61 3.61 0 01-1.253-.656 3.983 3.983 0 01-.941-1.196c-.261-.49-.46-1.084-.598-1.783-.137-.699-.206-1.516-.206-2.45v-2.175c0-1.17.105-2.149.314-2.94.216-.79.52-1.424.911-1.901a3.32 3.32 0 011.411-1.038 5.252 5.252 0 011.862-.314 5.38 5.38 0 011.529.206c.47.13.888.343 1.254.637.366.287.676.673.93 1.156.262.477.461 1.061.599 1.754.137.692.205 1.506.205 2.44zm-1.822 2.469v-2.773c0-.64-.04-1.202-.118-1.685a5.31 5.31 0 00-.323-1.255 2.474 2.474 0 00-.549-.842 1.934 1.934 0 00-.755-.471 2.723 2.723 0 00-.95-.156c-.431 0-.813.081-1.146.245a2.056 2.056 0 00-.843.754c-.222.346-.392.8-.51 1.362-.117.562-.176 1.245-.176 2.048v2.773c0 .64.036 1.205.108 1.695.078.49.192.915.343 1.274.15.353.333.644.548.872.216.229.464.399.745.51.288.104.604.156.95.156.445 0 .834-.084 1.167-.254.333-.17.61-.435.833-.794.228-.366.398-.833.51-1.401.11-.575.166-1.261.166-2.058zm13.11-2.469v2.175c0 1.169-.104 2.156-.313 2.959-.21.804-.51 1.451-.902 1.94a3.44 3.44 0 01-1.42 1.069c-.55.215-1.17.323-1.862.323a5.343 5.343 0 01-1.519-.206 3.61 3.61 0 01-1.254-.656 3.983 3.983 0 01-.94-1.196c-.262-.49-.461-1.084-.599-1.783-.137-.699-.205-1.516-.205-2.45v-2.175c0-1.17.104-2.149.313-2.94.216-.79.52-1.424.911-1.901a3.32 3.32 0 011.411-1.038 5.252 5.252 0 011.862-.314 5.38 5.38 0 011.529.206c.47.13.888.343 1.254.637.366.287.676.673.93 1.156.262.477.461 1.061.599 1.754.137.692.205 1.506.205 2.44zm-1.822 2.469v-2.773c0-.64-.04-1.202-.118-1.685a5.31 5.31 0 00-.323-1.255 2.475 2.475 0 00-.549-.842 1.934 1.934 0 00-.754-.471 2.723 2.723 0 00-.95-.156c-.432 0-.814.081-1.147.245a2.056 2.056 0 00-.843.754c-.222.346-.392.8-.51 1.362-.117.562-.176 1.245-.176 2.048v2.773c0 .64.036 1.205.108 1.695a5.6 5.6 0 00.343 1.274c.15.353.333.644.549.872.215.229.463.399.744.51.288.104.605.156.95.156.445 0 .834-.084 1.167-.254.333-.17.61-.435.833-.794.228-.366.398-.833.51-1.401.11-.575.166-1.261.166-2.058zm13.11-2.469v2.175c0 1.169-.104 2.156-.313 2.959-.21.804-.51 1.451-.902 1.94a3.44 3.44 0 01-1.42 1.069c-.55.215-1.17.323-1.862.323a5.343 5.343 0 01-1.519-.206 3.61 3.61 0 01-1.254-.656 3.983 3.983 0 01-.94-1.196c-.262-.49-.461-1.084-.599-1.783-.137-.699-.205-1.516-.205-2.45v-2.175c0-1.17.104-2.149.313-2.94.216-.79.52-1.424.911-1.901a3.32 3.32 0 011.411-1.038 5.251 5.251 0 011.862-.314 5.38 5.38 0 011.529.206c.47.13.888.343 1.254.637.366.287.676.673.931 1.156.261.477.46 1.061.598 1.754.137.692.206 1.506.206 2.44zm-1.822 2.469v-2.773c0-.64-.04-1.202-.118-1.685a5.31 5.31 0 00-.323-1.255 2.475 2.475 0 00-.549-.842 1.934 1.934 0 00-.754-.471 2.723 2.723 0 00-.95-.156c-.432 0-.814.081-1.147.245a2.056 2.056 0 00-.843.754c-.222.346-.392.8-.51 1.362-.117.562-.176 1.245-.176 2.048v2.773c0 .64.036 1.205.108 1.695a5.6 5.6 0 00.343 1.274c.15.353.333.644.549.872.215.229.463.399.744.51.288.104.605.156.95.156.445 0 .834-.084 1.167-.254.333-.17.61-.435.833-.794.228-.366.398-.833.51-1.401.11-.575.166-1.261.166-2.058zm13.111-2.469v2.175c0 1.169-.105 2.156-.314 2.959-.209.804-.51 1.451-.901 1.94-.392.49-.866.846-1.421 1.069-.549.215-1.17.323-1.862.323a5.344 5.344 0 01-1.519-.206 3.608 3.608 0 01-1.254-.656 3.983 3.983 0 01-.94-1.196c-.262-.49-.461-1.084-.599-1.783-.137-.699-.205-1.516-.205-2.45v-2.175c0-1.17.104-2.149.313-2.94.216-.79.52-1.424.912-1.901a3.318 3.318 0 011.411-1.038 5.246 5.246 0 011.861-.314 5.38 5.38 0 011.529.206c.47.13.888.343 1.254.637.366.287.676.673.931 1.156.261.477.461 1.061.598 1.754.137.692.206 1.506.206 2.44zm-1.823 2.469v-2.773c0-.64-.039-1.202-.118-1.685a5.259 5.259 0 00-.323-1.255 2.48 2.48 0 00-.549-.842 1.932 1.932 0 00-.754-.471 2.726 2.726 0 00-.951-.156c-.431 0-.813.081-1.146.245a2.059 2.059 0 00-.843.754c-.222.346-.392.8-.51 1.362-.117.562-.176 1.245-.176 2.048v2.773c0 .64.036 1.205.108 1.695a5.6 5.6 0 00.343 1.274c.15.353.333.644.549.872.215.229.464.399.744.51.288.104.605.156.951.156.444 0 .833-.084 1.166-.254.333-.17.611-.435.833-.794.229-.366.398-.833.509-1.401.111-.575.167-1.261.167-2.058zM50.805 57.51V59h-9.338v-1.303l4.674-5.203a18.757 18.757 0 001.333-1.627c.32-.45.542-.852.666-1.205.13-.36.196-.725.196-1.098 0-.47-.098-.895-.294-1.273a2.202 2.202 0 00-.843-.921c-.372-.23-.823-.343-1.352-.343-.634 0-1.163.124-1.587.372a2.292 2.292 0 00-.941 1.019c-.21.438-.314.94-.314 1.509h-1.813c0-.804.177-1.538.53-2.205a3.9 3.9 0 011.567-1.587c.693-.399 1.545-.598 2.558-.598.901 0 1.672.16 2.312.48.64.314 1.13.758 1.47 1.333.346.568.52 1.234.52 1.999 0 .418-.072.843-.216 1.274a6.46 6.46 0 01-.578 1.274 9.893 9.893 0 01-.853 1.254c-.32.411-.663.816-1.029 1.215l-3.821 4.145h7.153zm4.233-5.3l-1.45-.373.715-7.104h7.32v1.676h-5.781l-.432 3.88c.262-.15.592-.29.99-.421a4.521 4.521 0 011.392-.196c.66 0 1.25.114 1.773.343.523.222.967.542 1.333.96.372.418.656.92.852 1.509.196.588.294 1.244.294 1.97 0 .685-.095 1.316-.284 1.89a4.253 4.253 0 01-.833 1.51 3.748 3.748 0 01-1.41.99c-.563.234-1.226.352-1.99.352a5.6 5.6 0 01-1.636-.235 4.213 4.213 0 01-1.372-.735 3.98 3.98 0 01-.98-1.235c-.248-.496-.405-1.078-.47-1.744h1.724c.078.536.235.986.47 1.352.236.366.543.644.922.833.385.183.832.275 1.342.275.431 0 .813-.076 1.146-.226a2.28 2.28 0 00.843-.647c.229-.28.402-.62.52-1.019a4.54 4.54 0 00.186-1.342c0-.45-.063-.869-.187-1.254a2.871 2.871 0 00-.558-1.01 2.446 2.446 0 00-.892-.666 2.863 2.863 0 00-1.215-.245c-.607 0-1.068.082-1.381.245a5.281 5.281 0 00-.95.666zm17.951-1.48v2.175c0 1.17-.104 2.156-.313 2.96-.21.803-.51 1.45-.902 1.94a3.43 3.43 0 01-1.42 1.068c-.55.215-1.17.323-1.862.323a5.336 5.336 0 01-1.52-.206 3.606 3.606 0 01-1.253-.656 3.98 3.98 0 01-.941-1.196c-.261-.49-.46-1.084-.598-1.783-.137-.7-.206-1.516-.206-2.45V50.73c0-1.17.105-2.15.314-2.94.216-.79.52-1.424.911-1.9.392-.484.863-.83 1.411-1.04a5.278 5.278 0 011.862-.313c.555 0 1.065.069 1.529.206.47.13.888.343 1.254.637.366.287.676.673.93 1.156.262.477.461 1.062.599 1.754.137.693.205 1.506.205 2.44zm-1.822 2.47v-2.774c0-.64-.04-1.202-.118-1.685a5.295 5.295 0 00-.323-1.255 2.481 2.481 0 00-.549-.842 1.938 1.938 0 00-.755-.47 2.711 2.711 0 00-.95-.157c-.431 0-.813.081-1.146.245a2.061 2.061 0 00-.843.754c-.222.346-.392.8-.51 1.362-.117.562-.176 1.245-.176 2.048V53.2c0 .64.036 1.205.108 1.695.078.49.192.915.343 1.274.15.353.333.644.548.872.216.229.464.399.745.51.288.104.604.157.95.157.445 0 .834-.085 1.167-.255.333-.17.61-.435.833-.794.228-.366.398-.833.51-1.401.11-.575.166-1.26.166-2.058zm13.11-2.47v2.175c0 1.17-.104 2.156-.313 2.96-.21.803-.51 1.45-.902 1.94a3.43 3.43 0 01-1.42 1.068c-.55.215-1.17.323-1.862.323a5.336 5.336 0 01-1.519-.206 3.606 3.606 0 01-1.254-.656 3.98 3.98 0 01-.94-1.196c-.262-.49-.461-1.084-.599-1.783-.137-.7-.205-1.516-.205-2.45V50.73c0-1.17.104-2.15.313-2.94.216-.79.52-1.424.911-1.9.392-.484.863-.83 1.411-1.04a5.278 5.278 0 011.862-.313c.555 0 1.065.069 1.529.206.47.13.888.343 1.254.637.366.287.676.673.93 1.156.262.477.461 1.062.599 1.754.137.693.205 1.506.205 2.44zm-1.822 2.47v-2.774c0-.64-.04-1.202-.118-1.685a5.295 5.295 0 00-.323-1.255 2.482 2.482 0 00-.549-.842 1.938 1.938 0 00-.754-.47 2.711 2.711 0 00-.95-.157c-.432 0-.814.081-1.147.245a2.061 2.061 0 00-.843.754c-.222.346-.392.8-.51 1.362-.117.562-.176 1.245-.176 2.048V53.2c0 .64.036 1.205.108 1.695a5.6 5.6 0 00.343 1.274c.15.353.333.644.549.872.215.229.463.399.744.51.288.104.605.157.95.157.445 0 .834-.085 1.167-.255.333-.17.61-.435.833-.794.228-.366.398-.833.51-1.401.11-.575.166-1.26.166-2.058zm13.11-2.47v2.175c0 1.17-.104 2.156-.313 2.96-.21.803-.51 1.45-.902 1.94a3.43 3.43 0 01-1.42 1.068c-.55.215-1.17.323-1.862.323a5.336 5.336 0 01-1.519-.206 3.606 3.606 0 01-1.254-.656 3.98 3.98 0 01-.94-1.196c-.262-.49-.461-1.084-.599-1.783-.137-.7-.205-1.516-.205-2.45V50.73c0-1.17.104-2.15.313-2.94.216-.79.52-1.424.911-1.9.392-.484.863-.83 1.411-1.04a5.278 5.278 0 011.862-.313c.555 0 1.065.069 1.529.206.47.13.888.343 1.254.637.366.287.676.673.931 1.156.261.477.46 1.062.598 1.754.137.693.206 1.506.206 2.44zm-1.822 2.47v-2.774c0-.64-.04-1.202-.118-1.685a5.295 5.295 0 00-.323-1.255 2.482 2.482 0 00-.549-.842 1.938 1.938 0 00-.754-.47 2.711 2.711 0 00-.95-.157c-.432 0-.814.081-1.147.245a2.061 2.061 0 00-.843.754c-.222.346-.392.8-.51 1.362-.117.562-.176 1.245-.176 2.048V53.2c0 .64.036 1.205.108 1.695a5.6 5.6 0 00.343 1.274c.15.353.333.644.549.872.215.229.463.399.744.51.288.104.605.157.95.157.445 0 .834-.085 1.167-.255.333-.17.61-.435.833-.794.228-.366.398-.833.51-1.401.11-.575.166-1.26.166-2.058zm13.111-2.47v2.175c0 1.17-.105 2.156-.314 2.96-.209.803-.51 1.45-.901 1.94-.392.49-.866.846-1.421 1.068-.549.215-1.17.323-1.862.323a5.337 5.337 0 01-1.519-.206 3.604 3.604 0 01-1.254-.656 3.98 3.98 0 01-.94-1.196c-.262-.49-.461-1.084-.599-1.783-.137-.7-.205-1.516-.205-2.45V50.73c0-1.17.104-2.15.313-2.94.216-.79.52-1.424.912-1.9.392-.484.862-.83 1.411-1.04a5.268 5.268 0 011.861-.313 5.38 5.38 0 011.529.206c.47.13.888.343 1.254.637.366.287.676.673.931 1.156.261.477.461 1.062.598 1.754.137.693.206 1.506.206 2.44zm-1.823 2.47v-2.774c0-.64-.039-1.202-.118-1.685a5.244 5.244 0 00-.323-1.255 2.487 2.487 0 00-.549-.842 1.936 1.936 0 00-.754-.47 2.714 2.714 0 00-.951-.157 2.57 2.57 0 00-1.146.245 2.064 2.064 0 00-.843.754c-.222.346-.392.8-.51 1.362-.117.562-.176 1.245-.176 2.048V53.2c0 .64.036 1.205.108 1.695a5.6 5.6 0 00.343 1.274c.15.353.333.644.549.872.215.229.464.399.744.51.288.104.605.157.951.157.444 0 .833-.085 1.166-.255.333-.17.611-.435.833-.794.229-.366.398-.833.509-1.401.111-.575.167-1.26.167-2.058z" fill="#5E5E5E"/><path d="M139.233 611.634s54.905-8.027 91.509-13.18c36.603-5.152 54.905-4.174 91.509-12.584 36.603-8.409 54.905-10.951 91.508-29.462 36.604-18.512 54.906-41.019 91.509-63.094 36.604-22.076 54.906-29.774 91.509-47.283 36.604-17.508 54.905-20.836 91.509-40.26s54.905-56.86 91.509-56.86c36.603 0 54.905 7.957 91.509 21.257 36.603 13.301 54.905 45.246 91.509 45.246 36.603 0 91.507-261.949 91.507-261.949" stroke="#60B3A3" stroke-width="4.014"/><path d="M127.312 576.586V588h-1.882v-9.18l-2.789.946v-1.555l4.445-1.625h.226zm11.368 4.773v1.86c0 .89-.089 1.651-.266 2.281-.172.625-.422 1.133-.75 1.523a2.934 2.934 0 01-1.18.86 4.055 4.055 0 01-1.523.273c-.448 0-.865-.057-1.25-.172a3.038 3.038 0 01-1.031-.539 3.195 3.195 0 01-.789-.945 5.26 5.26 0 01-.5-1.398 9.15 9.15 0 01-.172-1.883v-1.86c0-.895.088-1.651.265-2.265.177-.62.43-1.123.758-1.508a2.884 2.884 0 011.172-.852 4.22 4.22 0 011.531-.265c.453 0 .87.057 1.25.172.386.109.729.283 1.032.523.307.24.567.552.781.938.219.38.385.841.5 1.382.114.537.172 1.162.172 1.875zm-1.883 2.125v-2.406a8.08 8.08 0 00-.078-1.195 3.507 3.507 0 00-.235-.883 1.76 1.76 0 00-.375-.594 1.33 1.33 0 00-.515-.336 1.822 1.822 0 00-.649-.109c-.291 0-.552.057-.781.172a1.4 1.4 0 00-.578.531c-.156.245-.276.568-.359.969a7.518 7.518 0 00-.118 1.445v2.406c0 .459.026.862.079 1.211.052.349.13.649.234.899.104.245.229.448.375.609.151.156.323.271.515.344.198.073.415.109.649.109.297 0 .56-.057.789-.172a1.44 1.44 0 00.578-.546c.156-.256.274-.586.352-.993.078-.406.117-.893.117-1.461zm11.187 3.016v1.5h-7.625v-1.289l3.703-4.039c.407-.458.727-.854.961-1.188.235-.333.399-.632.493-.898.099-.271.148-.534.148-.789a2.09 2.09 0 00-.203-.945 1.486 1.486 0 00-.578-.649c-.255-.161-.565-.242-.93-.242-.422 0-.776.091-1.062.273a1.712 1.712 0 00-.649.758 2.593 2.593 0 00-.219 1.094h-1.882c0-.662.151-1.266.453-1.813a3.312 3.312 0 011.312-1.312c.573-.328 1.263-.492 2.071-.492.76 0 1.406.127 1.937.383.531.255.935.617 1.211 1.086.281.468.422 1.023.422 1.664 0 .354-.057.705-.172 1.054a5.042 5.042 0 01-.492 1.047c-.209.344-.456.69-.742 1.039-.287.344-.602.693-.946 1.047l-2.461 2.711h5.25zm6.61-9.914V588h-1.883v-9.18l-2.789.946v-1.555l4.445-1.625h.227zm64.265-15.031h.235v1.539h-.133c-.672 0-1.253.104-1.742.312a3.226 3.226 0 00-1.196.86 3.658 3.658 0 00-.703 1.281c-.151.484-.226 1-.226 1.547v1.789c0 .453.049.854.148 1.203.099.344.237.633.414.867.183.229.391.404.625.524.235.119.487.179.758.179.281 0 .537-.057.766-.172.229-.119.424-.283.586-.492.161-.208.283-.456.367-.742.083-.286.125-.599.125-.938 0-.322-.042-.624-.125-.906a2.278 2.278 0 00-.352-.75 1.617 1.617 0 00-.586-.508 1.635 1.635 0 00-.797-.187c-.375 0-.716.088-1.023.266a2.173 2.173 0 00-.734.695 1.778 1.778 0 00-.297.898l-.719-.234c.042-.484.148-.919.32-1.305a3.14 3.14 0 01.696-.984c.286-.271.617-.477.992-.617.38-.146.797-.219 1.25-.219.552 0 1.031.104 1.437.312.407.209.743.493 1.008.852.271.354.471.76.602 1.219.135.453.203.927.203 1.422 0 .546-.084 1.057-.25 1.531-.167.469-.412.88-.735 1.234-.317.354-.705.63-1.164.828-.453.198-.968.297-1.547.297-.609 0-1.153-.117-1.632-.351a3.598 3.598 0 01-1.211-.969 4.424 4.424 0 01-.75-1.422 5.542 5.542 0 01-.258-1.703v-.781c0-.865.109-1.68.328-2.446a6 6 0 011.008-2.039 4.726 4.726 0 011.758-1.383c.713-.338 1.565-.507 2.554-.507zm10.844 8.343c0 .709-.164 1.305-.492 1.79a3.082 3.082 0 01-1.344 1.101c-.562.245-1.198.367-1.906.367s-1.346-.122-1.914-.367a3.082 3.082 0 01-1.344-1.101c-.328-.485-.492-1.081-.492-1.79 0-.468.091-.893.273-1.273a2.87 2.87 0 01.774-.992 3.635 3.635 0 011.187-.649 4.775 4.775 0 011.5-.226c.719 0 1.362.133 1.93.398.568.266 1.013.633 1.336 1.102.328.469.492 1.015.492 1.64zm-1.891-.093c0-.381-.078-.714-.234-1a1.638 1.638 0 00-.656-.664 1.97 1.97 0 00-.977-.235c-.375 0-.7.078-.976.235a1.66 1.66 0 00-.649.664 2.11 2.11 0 00-.226 1c0 .385.075.718.226 1 .151.276.368.487.649.633.281.145.612.218.992.218s.708-.073.984-.218c.276-.146.49-.357.641-.633.151-.282.226-.615.226-1zm1.633-5.188c0 .568-.151 1.073-.453 1.516a3.055 3.055 0 01-1.234 1.047c-.526.25-1.125.375-1.797.375-.677 0-1.281-.125-1.813-.375a3.113 3.113 0 01-1.242-1.047 2.658 2.658 0 01-.445-1.516c0-.677.148-1.247.445-1.711a2.901 2.901 0 011.242-1.07c.526-.245 1.128-.367 1.805-.367s1.279.122 1.805.367.937.602 1.234 1.07c.302.464.453 1.034.453 1.711zm-1.883.063c0-.339-.067-.636-.203-.891a1.465 1.465 0 00-.554-.609 1.608 1.608 0 00-.852-.219c-.328 0-.612.07-.851.211a1.41 1.41 0 00-.555.594c-.13.255-.195.56-.195.914 0 .349.065.653.195.914.13.255.315.455.555.601.244.146.531.219.859.219.328 0 .612-.073.851-.219a1.47 1.47 0 00.555-.601c.13-.261.195-.565.195-.914zm9.485-3.125h.234v1.539h-.133c-.671 0-1.252.104-1.742.312a3.222 3.222 0 00-1.195.86 3.626 3.626 0 00-.703 1.281c-.151.484-.227 1-.227 1.547v1.789c0 .453.05.854.149 1.203.099.344.237.633.414.867.182.229.39.404.625.524.234.119.487.179.758.179.281 0 .536-.057.765-.172.229-.119.425-.283.586-.492.162-.208.284-.456.367-.742a3.32 3.32 0 00.125-.938 3.16 3.16 0 00-.125-.906 2.276 2.276 0 00-.351-.75 1.626 1.626 0 00-.586-.508 1.638 1.638 0 00-.797-.187c-.375 0-.716.088-1.023.266a2.176 2.176 0 00-.735.695 1.797 1.797 0 00-.297.898l-.718-.234a4.02 4.02 0 01.32-1.305c.177-.385.409-.713.695-.984.287-.271.617-.477.992-.617a3.463 3.463 0 011.25-.219c.552 0 1.032.104 1.438.312.406.209.742.493 1.008.852.27.354.471.76.601 1.219.136.453.203.927.203 1.422 0 .546-.083 1.057-.25 1.531-.166.469-.411.88-.734 1.234-.318.354-.706.63-1.164.828-.453.198-.969.297-1.547.297-.609 0-1.154-.117-1.633-.351a3.608 3.608 0 01-1.211-.969 4.424 4.424 0 01-.75-1.422 5.542 5.542 0 01-.258-1.703v-.781c0-.865.11-1.68.329-2.446a5.98 5.98 0 011.007-2.039 4.742 4.742 0 011.758-1.383c.714-.338 1.565-.507 2.555-.507zm11.242 7.39v1.5h-8.203l-.063-1.133 4.907-7.687h1.508l-1.633 2.797-2.821 4.523h6.305zm-1.422-7.32V573h-1.883v-11.375h1.883zm57.399-11.039V562h-1.883v-9.18l-2.789.946v-1.555l4.445-1.625h.227zm11.578 9.914v1.5h-7.625v-1.289l3.703-4.039c.406-.458.726-.854.961-1.188.234-.333.398-.632.492-.898.099-.271.148-.534.148-.789 0-.359-.067-.675-.203-.945a1.486 1.486 0 00-.578-.649c-.255-.161-.565-.242-.93-.242-.421 0-.776.091-1.062.273a1.71 1.71 0 00-.648.758 2.593 2.593 0 00-.219 1.094H308c0-.662.151-1.266.453-1.813.302-.552.74-.989 1.313-1.312.573-.328 1.263-.492 2.07-.492.76 0 1.406.127 1.937.383.532.255.935.617 1.211 1.086.282.468.422 1.023.422 1.664 0 .354-.057.705-.172 1.054a4.942 4.942 0 01-.492 1.047c-.208.344-.456.69-.742 1.039-.286.344-.602.693-.945 1.047l-2.461 2.711h5.25zm9.304-2.555v1.5h-8.203l-.062-1.133 4.906-7.687h1.508l-1.633 2.797-2.82 4.523h6.304zm-1.421-7.32V562h-1.883v-11.375h1.883zm10.515 7.32v1.5h-8.203l-.062-1.133 4.906-7.687h1.508l-1.633 2.797-2.82 4.523h6.304zm-1.422-7.32V562h-1.882v-11.375h1.882zm4.891 4.836h1.125c.437 0 .799-.076 1.086-.227a1.47 1.47 0 00.648-.625c.141-.265.211-.57.211-.914 0-.359-.065-.666-.195-.922a1.318 1.318 0 00-.578-.601c-.255-.141-.581-.211-.977-.211-.333 0-.635.068-.906.203-.266.13-.477.318-.633.563a1.538 1.538 0 00-.234.859h-1.891c0-.604.159-1.141.477-1.609.317-.469.75-.836 1.297-1.102.552-.271 1.171-.406 1.859-.406.734 0 1.375.122 1.922.367.552.24.982.599 1.289 1.078.307.479.461 1.073.461 1.781 0 .323-.076.651-.227.985a2.86 2.86 0 01-.672.914 3.495 3.495 0 01-1.109.664c-.443.166-.956.25-1.539.25h-1.414v-1.047zm0 1.469v-1.032h1.414c.667 0 1.234.079 1.703.235.474.156.86.372 1.156.648.297.271.513.581.649.93.14.349.211.719.211 1.109 0 .532-.097 1.006-.289 1.422a2.882 2.882 0 01-.805 1.047 3.586 3.586 0 01-1.227.649 5.047 5.047 0 01-1.515.218c-.49 0-.959-.067-1.406-.203a3.853 3.853 0 01-1.204-.601 2.982 2.982 0 01-.843-1.008c-.203-.406-.305-.875-.305-1.406h1.883c0 .338.078.638.234.898.162.255.386.456.672.602.292.145.625.218 1 .218.396 0 .737-.07 1.023-.211.287-.14.506-.349.657-.625.156-.276.234-.609.234-1 0-.442-.086-.802-.258-1.078a1.513 1.513 0 00-.734-.609c-.318-.136-.693-.203-1.125-.203h-1.125zm60.039-26.43v1.5h-7.625v-1.289l3.703-4.039c.406-.458.727-.854.961-1.188.234-.333.399-.632.492-.898.099-.271.149-.534.149-.789a2.09 2.09 0 00-.203-.945 1.489 1.489 0 00-.579-.649c-.255-.161-.565-.242-.929-.242-.422 0-.776.091-1.063.273a1.716 1.716 0 00-.648.758 2.593 2.593 0 00-.219 1.094h-1.883c0-.662.151-1.266.453-1.813.302-.552.74-.989 1.313-1.312.573-.328 1.263-.492 2.07-.492.761 0 1.406.127 1.938.383.531.255.935.617 1.211 1.086.281.468.421 1.023.421 1.664 0 .354-.057.705-.171 1.054a4.997 4.997 0 01-.493 1.047c-.208.344-.455.69-.742 1.039-.286.344-.601.693-.945 1.047L392.5 530.5h5.25zm3.445-3.789l-1.5-.367.617-5.719h6.133v1.594h-4.57l-.313 2.789c.178-.104.422-.206.735-.305a3.38 3.38 0 011.07-.156c.537 0 1.016.088 1.438.265a2.87 2.87 0 011.086.758c.297.328.523.729.679 1.203.157.469.235.998.235 1.586 0 .526-.078 1.019-.235 1.477-.151.458-.38.862-.687 1.211a3.157 3.157 0 01-1.164.82c-.464.193-1.013.289-1.649.289a4.58 4.58 0 01-1.367-.203 3.736 3.736 0 01-1.164-.617 3.14 3.14 0 01-.828-1.016 3.483 3.483 0 01-.359-1.398h1.843c.047.37.149.685.305.945.161.255.375.451.641.586.265.136.573.203.921.203.318 0 .592-.054.821-.164.229-.114.419-.276.57-.484a2.17 2.17 0 00.344-.75c.078-.287.117-.604.117-.953 0-.334-.044-.638-.133-.914a1.98 1.98 0 00-.383-.719 1.63 1.63 0 00-.632-.469 2.15 2.15 0 00-.883-.172c-.448 0-.792.065-1.031.196-.235.13-.454.291-.657.484zm9.094 0l-1.5-.367.617-5.719h6.133v1.594h-4.57l-.313 2.789a3.68 3.68 0 01.735-.305 3.38 3.38 0 011.07-.156c.536 0 1.016.088 1.437.265.428.172.79.425 1.086.758.297.328.524.729.68 1.203.156.469.234.998.234 1.586 0 .526-.078 1.019-.234 1.477-.151.458-.38.862-.687 1.211a3.169 3.169 0 01-1.165.82c-.463.193-1.013.289-1.648.289-.474 0-.93-.067-1.367-.203a3.736 3.736 0 01-1.164-.617 3.14 3.14 0 01-.828-1.016 3.483 3.483 0 01-.36-1.398h1.844c.047.37.149.685.305.945.161.255.375.451.64.586.266.136.573.203.922.203.318 0 .591-.054.821-.164.229-.114.419-.276.57-.484a2.17 2.17 0 00.344-.75c.078-.287.117-.604.117-.953 0-.334-.044-.638-.133-.914a1.98 1.98 0 00-.383-.719 1.626 1.626 0 00-.633-.469 2.142 2.142 0 00-.882-.172c-.448 0-.792.065-1.032.196-.234.13-.453.291-.656.484zm14.531-1.352v1.86c0 .89-.088 1.651-.265 2.281-.172.625-.422 1.133-.75 1.523a2.94 2.94 0 01-1.18.86 4.055 4.055 0 01-1.523.273c-.448 0-.865-.057-1.25-.172a3.042 3.042 0 01-1.032-.539 3.225 3.225 0 01-.789-.945 5.331 5.331 0 01-.5-1.398 9.22 9.22 0 01-.172-1.883v-1.86c0-.895.089-1.651.266-2.265.177-.62.43-1.123.758-1.508a2.884 2.884 0 011.172-.852 4.215 4.215 0 011.531-.265c.453 0 .87.057 1.25.172.385.109.729.283 1.031.523.307.24.568.552.781.938.219.38.386.841.5 1.382.115.537.172 1.162.172 1.875zm-1.882 2.125v-2.406c0-.453-.027-.851-.079-1.195a3.552 3.552 0 00-.234-.883 1.76 1.76 0 00-.375-.594 1.325 1.325 0 00-.516-.336 1.812 1.812 0 00-.648-.109c-.292 0-.552.057-.781.172a1.4 1.4 0 00-.578.531c-.157.245-.276.568-.36.969a7.608 7.608 0 00-.117 1.445v2.406c0 .459.026.862.078 1.211.052.349.13.649.234.899.105.245.23.448.376.609.151.156.322.271.515.344.198.073.414.109.649.109.296 0 .559-.057.789-.172.229-.114.421-.296.578-.546.156-.256.273-.586.351-.993.078-.406.118-.893.118-1.461zm5.539-.773l-1.5-.367.617-5.719h6.133v1.594h-4.571l-.312 2.789c.177-.104.422-.206.734-.305a3.385 3.385 0 011.07-.156c.537 0 1.016.088 1.438.265a2.87 2.87 0 011.086.758c.297.328.523.729.68 1.203.156.469.234.998.234 1.586 0 .526-.078 1.019-.234 1.477a3.448 3.448 0 01-.688 1.211 3.157 3.157 0 01-1.164.82c-.464.193-1.013.289-1.648.289-.474 0-.93-.067-1.368-.203a3.736 3.736 0 01-1.164-.617 3.166 3.166 0 01-.828-1.016 3.483 3.483 0 01-.359-1.398h1.844c.046.37.148.685.304.945.162.255.375.451.641.586.266.136.573.203.922.203.317 0 .591-.054.82-.164.229-.114.419-.276.57-.484.157-.214.271-.464.344-.75.078-.287.117-.604.117-.953 0-.334-.044-.638-.133-.914a1.978 1.978 0 00-.382-.719 1.641 1.641 0 00-.633-.469 2.147 2.147 0 00-.883-.172c-.448 0-.792.065-1.031.196-.235.13-.453.291-.656.484zm54.625-62l-1.5-.367.617-5.719h6.133v1.594h-4.571l-.312 2.789c.177-.104.422-.206.734-.305a3.385 3.385 0 011.07-.156c.537 0 1.016.088 1.438.265a2.87 2.87 0 011.086.758c.297.328.523.729.68 1.203.156.469.234.998.234 1.586 0 .526-.078 1.019-.234 1.477a3.448 3.448 0 01-.688 1.211 3.157 3.157 0 01-1.164.82c-.464.193-1.013.289-1.648.289-.474 0-.93-.067-1.368-.203a3.736 3.736 0 01-1.164-.617 3.166 3.166 0 01-.828-1.016 3.483 3.483 0 01-.359-1.398h1.844c.046.37.148.685.304.945.162.255.375.451.641.586.265.136.573.203.922.203.317 0 .591-.054.82-.164.229-.114.419-.276.57-.484.157-.214.271-.464.344-.75.078-.287.117-.604.117-.953 0-.334-.044-.638-.132-.914a1.995 1.995 0 00-.383-.719 1.641 1.641 0 00-.633-.469 2.147 2.147 0 00-.883-.172c-.448 0-.792.065-1.031.196-.235.13-.453.291-.656.484zm9.328-1.25h1.125c.437 0 .799-.076 1.086-.227a1.48 1.48 0 00.648-.625c.141-.265.211-.57.211-.914 0-.359-.065-.666-.195-.922a1.318 1.318 0 00-.578-.601c-.256-.141-.581-.211-.977-.211-.333 0-.635.068-.906.203-.266.13-.477.318-.633.563a1.538 1.538 0 00-.234.859h-1.891c0-.604.159-1.141.476-1.609.318-.469.75-.836 1.297-1.102.552-.271 1.172-.406 1.86-.406.734 0 1.375.122 1.922.367.552.24.981.599 1.289 1.078.307.479.461 1.073.461 1.781 0 .323-.076.651-.227.985a2.86 2.86 0 01-.672.914 3.506 3.506 0 01-1.109.664c-.443.166-.956.25-1.539.25h-1.414v-1.047zm0 1.469v-1.032h1.414c.666 0 1.234.079 1.703.235.474.156.859.372 1.156.648.297.271.513.581.649.93.14.349.21.719.21 1.109 0 .532-.096 1.006-.289 1.422a2.869 2.869 0 01-.804 1.047 3.586 3.586 0 01-1.227.649 5.052 5.052 0 01-1.515.218c-.49 0-.959-.067-1.407-.203a3.837 3.837 0 01-1.203-.601 2.997 2.997 0 01-.844-1.008c-.203-.406-.304-.875-.304-1.406h1.883c0 .338.078.638.234.898.161.255.385.456.672.602.291.145.625.218 1 .218.396 0 .737-.07 1.023-.211.287-.14.505-.349.657-.625.156-.276.234-.609.234-1 0-.442-.086-.802-.258-1.078a1.518 1.518 0 00-.734-.609c-.318-.136-.693-.203-1.125-.203h-1.125zm14.718 1.015v1.5h-8.203l-.062-1.133 4.906-7.687h1.508l-1.633 2.797-2.82 4.523h6.304zm-1.421-7.32V470h-1.883v-11.375h1.883zm10.234 0v1.031L511.414 470h-1.984l4.539-9.875h-5.891v-1.5h7.883zm9.094 0v1.031L520.508 470h-1.985l4.539-9.875h-5.89v-1.5h7.883zm56.625-49v1.031L577.133 421h-1.985l4.54-9.875h-5.891v-1.5h7.883zm9.375 7.32v1.5h-8.203l-.063-1.133 4.906-7.687h1.508l-1.633 2.797-2.82 4.523h6.305zm-1.422-7.32V421h-1.883v-11.375h1.883zm10.515 7.32v1.5h-8.203l-.062-1.133 4.906-7.687h1.508l-1.633 2.797-2.82 4.523h6.304zm-1.421-7.32V421h-1.883v-11.375h1.883zm4.89 4.836h1.125c.438 0 .8-.076 1.086-.227.292-.151.508-.359.649-.625.14-.265.211-.57.211-.914 0-.359-.066-.666-.196-.922a1.318 1.318 0 00-.578-.601c-.255-.141-.581-.211-.976-.211-.334 0-.636.068-.907.203-.265.13-.476.318-.633.563a1.538 1.538 0 00-.234.859h-1.891c0-.604.159-1.141.477-1.609.318-.469.75-.836 1.297-1.102.552-.271 1.172-.406 1.859-.406.735 0 1.375.122 1.922.367.552.24.982.599 1.289 1.078.307.479.461 1.073.461 1.781 0 .323-.075.651-.226.985a2.86 2.86 0 01-.672.914 3.511 3.511 0 01-1.11.664c-.442.166-.955.25-1.539.25h-1.414v-1.047zm0 1.469v-1.032h1.414c.667 0 1.235.079 1.703.235.474.156.86.372 1.157.648.297.271.513.581.648.93.141.349.211.719.211 1.109 0 .532-.096 1.006-.289 1.422a2.882 2.882 0 01-.805 1.047 3.59 3.59 0 01-1.226.649 5.058 5.058 0 01-1.516.218 4.81 4.81 0 01-1.406-.203 3.837 3.837 0 01-1.203-.601 2.985 2.985 0 01-.844-1.008c-.203-.406-.305-.875-.305-1.406h1.883c0 .338.078.638.234.898.162.255.386.456.672.602.292.145.625.218 1 .218.396 0 .737-.07 1.024-.211.286-.14.505-.349.656-.625.156-.276.234-.609.234-1 0-.442-.086-.802-.257-1.078a1.516 1.516 0 00-.735-.609c-.318-.136-.693-.203-1.125-.203h-1.125zm8.399 3.586h.156c.719 0 1.318-.094 1.797-.282.484-.192.87-.458 1.156-.796.286-.339.492-.737.617-1.196.125-.458.188-.956.188-1.492v-1.961c0-.463-.05-.87-.149-1.219a2.5 2.5 0 00-.406-.882 1.724 1.724 0 00-.602-.54 1.524 1.524 0 00-.726-.179c-.287 0-.544.065-.774.195-.224.125-.414.3-.57.524a2.554 2.554 0 00-.351.773 3.574 3.574 0 00-.118.937c0 .313.037.615.11.907.078.286.192.541.344.765.151.224.341.401.57.532.229.13.497.195.804.195.292 0 .56-.055.805-.164.245-.115.459-.268.641-.461s.325-.409.43-.649a2.03 2.03 0 00.171-.734l.719.219c0 .396-.083.786-.25 1.172-.161.38-.388.729-.68 1.047a3.344 3.344 0 01-1.007.75 2.782 2.782 0 01-1.243.281c-.541 0-1.02-.102-1.437-.305a2.998 2.998 0 01-1.031-.844 3.728 3.728 0 01-.61-1.218 5.094 5.094 0 01-.203-1.446c0-.547.084-1.06.25-1.539.167-.479.409-.901.727-1.265.317-.37.703-.657 1.156-.86.458-.208.977-.312 1.555-.312.614 0 1.153.12 1.617.359.463.24.854.57 1.172.992.317.422.557.912.718 1.469.162.557.243 1.156.243 1.797v.664c0 .672-.06 1.32-.18 1.945a6.492 6.492 0 01-.586 1.727 4.815 4.815 0 01-1.055 1.39c-.432.396-.963.706-1.593.93-.625.219-1.36.328-2.203.328h-.172v-1.554zm54.625-40h.156c.719 0 1.318-.094 1.797-.282.484-.192.87-.458 1.156-.796.286-.339.492-.737.617-1.196.125-.458.188-.956.188-1.492v-1.961c0-.463-.05-.87-.149-1.219a2.518 2.518 0 00-.406-.882 1.724 1.724 0 00-.602-.54 1.524 1.524 0 00-.726-.179c-.287 0-.544.065-.774.195-.224.125-.414.3-.57.524a2.554 2.554 0 00-.351.773 3.574 3.574 0 00-.118.937c0 .313.037.615.11.907.078.286.192.541.343.765.152.224.342.401.571.532.229.13.497.195.805.195.291 0 .559-.055.804-.164.245-.115.459-.268.641-.461s.325-.409.429-.649c.105-.239.162-.484.172-.734l.719.219c0 .396-.083.786-.25 1.172-.161.38-.388.729-.68 1.047a3.344 3.344 0 01-1.007.75 2.782 2.782 0 01-1.243.281c-.541 0-1.02-.102-1.437-.305a2.998 2.998 0 01-1.031-.844 3.728 3.728 0 01-.61-1.218 5.094 5.094 0 01-.203-1.446c0-.547.084-1.06.25-1.539.167-.479.409-.901.727-1.265.317-.37.703-.657 1.156-.86.458-.208.977-.312 1.555-.312.614 0 1.153.12 1.617.359.463.24.854.57 1.172.992.317.422.557.912.719 1.469.161.557.242 1.156.242 1.797v.664c0 .672-.06 1.32-.18 1.945a6.492 6.492 0 01-.586 1.727 4.815 4.815 0 01-1.055 1.39c-.432.396-.963.706-1.593.93-.625.219-1.36.328-2.204.328h-.171v-1.554zm15.203-.016v1.5h-7.625v-1.289l3.703-4.039c.406-.458.726-.854.961-1.188.234-.333.398-.632.492-.898.099-.271.148-.534.148-.789 0-.359-.067-.675-.203-.945a1.486 1.486 0 00-.578-.649c-.255-.161-.565-.242-.93-.242-.421 0-.776.091-1.062.273a1.71 1.71 0 00-.648.758 2.593 2.593 0 00-.219 1.094H674c0-.662.151-1.266.453-1.813.302-.552.74-.989 1.313-1.312.573-.328 1.263-.492 2.07-.492.76 0 1.406.127 1.937.383.532.255.935.617 1.211 1.086.282.468.422 1.023.422 1.664 0 .354-.057.705-.172 1.054a4.942 4.942 0 01-.492 1.047c-.208.344-.456.69-.742 1.039-.286.344-.602.693-.945 1.047l-2.461 2.711h5.25zm9.094 0v1.5h-7.626v-1.289l3.704-4.039c.406-.458.726-.854.961-1.188.234-.333.398-.632.492-.898.099-.271.148-.534.148-.789a2.09 2.09 0 00-.203-.945 1.486 1.486 0 00-.578-.649c-.255-.161-.565-.242-.93-.242-.422 0-.776.091-1.062.273a1.712 1.712 0 00-.649.758 2.593 2.593 0 00-.218 1.094h-1.883c0-.662.151-1.266.453-1.813a3.312 3.312 0 011.312-1.312c.573-.328 1.263-.492 2.071-.492.76 0 1.406.127 1.937.383.531.255.935.617 1.211 1.086.281.468.422 1.023.422 1.664 0 .354-.057.705-.172 1.054a4.992 4.992 0 01-.492 1.047c-.208.344-.456.69-.742 1.039-.287.344-.602.693-.946 1.047l-2.46 2.711h5.25zm8.906-1.602c0 .709-.164 1.305-.492 1.79a3.088 3.088 0 01-1.344 1.101c-.563.245-1.198.367-1.906.367-.709 0-1.347-.122-1.914-.367a3.082 3.082 0 01-1.344-1.101c-.328-.485-.492-1.081-.492-1.79 0-.468.091-.893.273-1.273.182-.385.44-.716.773-.992a3.65 3.65 0 011.188-.649 4.766 4.766 0 011.5-.226c.719 0 1.362.133 1.93.398.567.266 1.013.633 1.336 1.102.328.469.492 1.015.492 1.64zm-1.891-.093c0-.381-.078-.714-.234-1a1.64 1.64 0 00-.657-.664 1.966 1.966 0 00-.976-.235c-.375 0-.701.078-.977.235a1.65 1.65 0 00-.648.664 2.11 2.11 0 00-.227 1c0 .385.076.718.227 1 .151.276.367.487.648.633.282.145.612.218.993.218.38 0 .708-.073.984-.218.276-.146.49-.357.641-.633.151-.282.226-.615.226-1zm1.633-5.188c0 .568-.151 1.073-.453 1.516-.297.443-.709.791-1.235 1.047-.526.25-1.125.375-1.796.375-.678 0-1.282-.125-1.813-.375a3.113 3.113 0 01-1.242-1.047 2.658 2.658 0 01-.445-1.516c0-.677.148-1.247.445-1.711a2.901 2.901 0 011.242-1.07c.526-.245 1.128-.367 1.805-.367s1.278.122 1.804.367.938.602 1.235 1.07c.302.464.453 1.034.453 1.711zm-1.883.063c0-.339-.068-.636-.203-.891a1.461 1.461 0 00-.555-.609 1.601 1.601 0 00-.851-.219c-.328 0-.612.07-.852.211-.239.14-.424.338-.554.594-.131.255-.196.56-.196.914 0 .349.065.653.196.914.13.255.315.455.554.601.245.146.531.219.86.219.328 0 .612-.073.851-.219a1.47 1.47 0 00.555-.601c.13-.261.195-.565.195-.914zm11.235 5.218c0 .709-.165 1.305-.493 1.79a3.085 3.085 0 01-1.343 1.101c-.563.245-1.198.367-1.907.367-.708 0-1.346-.122-1.914-.367a3.085 3.085 0 01-1.343-1.101c-.329-.485-.493-1.081-.493-1.79a2.868 2.868 0 011.047-2.265 3.65 3.65 0 011.188-.649 4.766 4.766 0 011.5-.226c.718 0 1.362.133 1.929.398.568.266 1.013.633 1.336 1.102.328.469.493 1.015.493 1.64zm-1.891-.093c0-.381-.078-.714-.235-1a1.632 1.632 0 00-.656-.664 1.97 1.97 0 00-.976-.235c-.375 0-.701.078-.977.235a1.65 1.65 0 00-.648.664 2.11 2.11 0 00-.227 1c0 .385.076.718.227 1 .151.276.367.487.648.633.281.145.612.218.992.218.381 0 .709-.073.985-.218.276-.146.489-.357.64-.633.151-.282.227-.615.227-1zm1.633-5.188c0 .568-.151 1.073-.453 1.516-.297.443-.709.791-1.235 1.047-.526.25-1.125.375-1.797.375-.677 0-1.281-.125-1.812-.375a3.113 3.113 0 01-1.242-1.047 2.659 2.659 0 01-.446-1.516c0-.677.149-1.247.446-1.711a2.901 2.901 0 011.242-1.07c.526-.245 1.127-.367 1.805-.367.677 0 1.278.122 1.804.367s.938.602 1.235 1.07c.302.464.453 1.034.453 1.711zm-1.883.063c0-.339-.068-.636-.203-.891a1.461 1.461 0 00-.555-.609 1.604 1.604 0 00-.851-.219c-.329 0-.612.07-.852.211a1.41 1.41 0 00-.555.594c-.13.255-.195.56-.195.914 0 .349.065.653.195.914.13.255.315.455.555.601.245.146.531.219.859.219.328 0 .612-.073.852-.219.239-.146.424-.346.555-.601.13-.261.195-.565.195-.914zm50.422-59.094V325h-1.883v-9.18l-2.789.946v-1.555l4.445-1.625h.227zm9.093 0V325h-1.882v-9.18l-2.789.946v-1.555l4.445-1.625h.226zm11.508.039v1.031L773.273 325h-1.984l4.539-9.875h-5.89v-1.5h7.882zm9.375 7.32v1.5h-8.203l-.062-1.133 4.906-7.687h1.508l-1.633 2.797-2.82 4.523h6.304zm-1.422-7.32V325h-1.882v-11.375h1.882zm4.196 9.891h.156c.719 0 1.318-.094 1.797-.282.484-.192.87-.458 1.156-.796a3.07 3.07 0 00.617-1.196c.125-.458.188-.956.188-1.492v-1.961c0-.463-.05-.87-.149-1.219a2.5 2.5 0 00-.406-.882 1.73 1.73 0 00-.601-.54 1.528 1.528 0 00-.727-.179c-.286 0-.544.065-.773.195-.224.125-.415.3-.571.524a2.554 2.554 0 00-.351.773 3.617 3.617 0 00-.117.937c0 .313.036.615.109.907.078.286.193.541.344.765.151.224.341.401.57.532.229.13.497.195.805.195.291 0 .56-.055.804-.164.245-.115.459-.268.641-.461s.325-.409.43-.649a2.03 2.03 0 00.171-.734l.719.219c0 .396-.083.786-.25 1.172-.161.38-.388.729-.679 1.047a3.36 3.36 0 01-1.008.75c-.38.187-.795.281-1.242.281-.542 0-1.021-.102-1.438-.305a3.007 3.007 0 01-1.031-.844 3.728 3.728 0 01-.61-1.218 5.094 5.094 0 01-.203-1.446c0-.547.084-1.06.25-1.539.167-.479.409-.901.727-1.265.318-.37.703-.657 1.156-.86.458-.208.977-.312 1.555-.312.614 0 1.153.12 1.617.359.464.24.854.57 1.172.992.318.422.557.912.719 1.469.161.557.242 1.156.242 1.797v.664c0 .672-.06 1.32-.18 1.945a6.492 6.492 0 01-.586 1.727 4.811 4.811 0 01-1.054 1.39c-.433.396-.964.706-1.594.93-.625.219-1.36.328-2.203.328h-.172v-1.554zm13.265-9.961h.235v1.539h-.133c-.672 0-1.253.104-1.742.312a3.226 3.226 0 00-1.196.86 3.658 3.658 0 00-.703 1.281c-.151.484-.226 1-.226 1.547v1.789c0 .453.049.854.148 1.203.099.344.237.633.414.867.183.229.391.404.625.524.235.119.487.179.758.179.281 0 .537-.057.766-.172.229-.119.424-.283.586-.492.161-.208.283-.456.367-.742.083-.286.125-.599.125-.938 0-.322-.042-.624-.125-.906a2.258 2.258 0 00-.352-.75 1.617 1.617 0 00-.586-.508 1.635 1.635 0 00-.797-.187c-.375 0-.716.088-1.023.266a2.173 2.173 0 00-.734.695 1.778 1.778 0 00-.297.898l-.719-.234c.042-.484.148-.919.32-1.305a3.14 3.14 0 01.696-.984c.286-.271.617-.477.992-.617.38-.146.797-.219 1.25-.219.552 0 1.031.104 1.437.312.407.209.742.493 1.008.852.271.354.471.76.602 1.219.135.453.203.927.203 1.422 0 .546-.084 1.057-.25 1.531-.167.469-.412.88-.735 1.234-.317.354-.705.63-1.164.828-.453.198-.968.297-1.546.297-.61 0-1.154-.117-1.633-.351a3.598 3.598 0 01-1.211-.969 4.424 4.424 0 01-.75-1.422 5.542 5.542 0 01-.258-1.703v-.781c0-.865.109-1.68.328-2.446a6 6 0 011.008-2.039 4.726 4.726 0 011.758-1.383c.713-.338 1.565-.507 2.554-.507zm45.985 22.031V347h-1.883v-9.18l-2.789.946v-1.555l4.445-1.625h.227zm11.367 4.773v1.86c0 .89-.089 1.651-.266 2.281-.172.625-.422 1.133-.75 1.523a2.938 2.938 0 01-1.179.86 4.056 4.056 0 01-1.524.273c-.448 0-.864-.057-1.25-.172a3.038 3.038 0 01-1.031-.539 3.225 3.225 0 01-.789-.945 5.295 5.295 0 01-.5-1.398 9.15 9.15 0 01-.172-1.883v-1.86c0-.895.089-1.651.266-2.265.177-.62.429-1.123.757-1.508a2.89 2.89 0 011.172-.852 4.225 4.225 0 011.532-.265c.453 0 .869.057 1.25.172.385.109.729.283 1.031.523.307.24.568.552.781.938.219.38.385.841.5 1.382.115.537.172 1.162.172 1.875zm-1.883 2.125v-2.406a8.08 8.08 0 00-.078-1.195 3.552 3.552 0 00-.234-.883 1.76 1.76 0 00-.375-.594 1.325 1.325 0 00-.516-.336 1.82 1.82 0 00-.648-.109 1.72 1.72 0 00-.782.172 1.4 1.4 0 00-.578.531c-.156.245-.276.568-.359.969a7.608 7.608 0 00-.117 1.445v2.406c0 .459.026.862.078 1.211.052.349.13.649.234.899.104.245.229.448.375.609.151.156.323.271.516.344.198.073.414.109.648.109.297 0 .56-.057.789-.172a1.44 1.44 0 00.578-.546c.157-.256.274-.586.352-.993.078-.406.117-.893.117-1.461zm11 1.414c0 .709-.164 1.305-.492 1.79a3.082 3.082 0 01-1.344 1.101c-.562.245-1.198.367-1.906.367s-1.346-.122-1.914-.367a3.082 3.082 0 01-1.344-1.101c-.328-.485-.492-1.081-.492-1.79 0-.468.091-.893.273-1.273a2.87 2.87 0 01.774-.992 3.635 3.635 0 011.187-.649 4.775 4.775 0 011.5-.226c.719 0 1.362.133 1.93.398.568.266 1.013.633 1.336 1.102.328.469.492 1.015.492 1.64zm-1.891-.093c0-.381-.078-.714-.234-1a1.638 1.638 0 00-.656-.664 1.97 1.97 0 00-.977-.235c-.375 0-.7.078-.976.235a1.66 1.66 0 00-.649.664 2.11 2.11 0 00-.226 1c0 .385.075.718.226 1 .151.276.368.487.649.633.281.145.612.218.992.218s.708-.073.984-.218c.276-.146.49-.357.641-.633.151-.282.226-.615.226-1zm1.633-5.188c0 .568-.151 1.073-.453 1.516a3.055 3.055 0 01-1.234 1.047c-.526.25-1.125.375-1.797.375-.677 0-1.281-.125-1.813-.375a3.113 3.113 0 01-1.242-1.047 2.658 2.658 0 01-.445-1.516c0-.677.148-1.247.445-1.711a2.901 2.901 0 011.242-1.07c.526-.245 1.128-.367 1.805-.367s1.279.122 1.805.367.937.602 1.234 1.07c.302.464.453 1.034.453 1.711zm-1.883.063c0-.339-.067-.636-.203-.891a1.465 1.465 0 00-.554-.609 1.608 1.608 0 00-.852-.219c-.328 0-.612.07-.851.211a1.41 1.41 0 00-.555.594c-.13.255-.195.56-.195.914 0 .349.065.653.195.914.13.255.315.455.555.601.244.146.531.219.859.219.328 0 .612-.073.851-.219a1.47 1.47 0 00.555-.601c.13-.261.195-.565.195-.914zm11.211 1.679v1.86c0 .89-.088 1.651-.265 2.281-.172.625-.422 1.133-.75 1.523a2.94 2.94 0 01-1.18.86 4.055 4.055 0 01-1.523.273c-.448 0-.865-.057-1.25-.172a3.042 3.042 0 01-1.032-.539 3.225 3.225 0 01-.789-.945 5.331 5.331 0 01-.5-1.398 9.22 9.22 0 01-.172-1.883v-1.86c0-.895.089-1.651.266-2.265.177-.62.43-1.123.758-1.508a2.884 2.884 0 011.172-.852 4.22 4.22 0 011.531-.265c.453 0 .87.057 1.25.172.385.109.729.283 1.031.523.308.24.568.552.782.938.218.38.385.841.5 1.382.114.537.171 1.162.171 1.875zm-1.882 2.125v-2.406c0-.453-.026-.851-.079-1.195a3.552 3.552 0 00-.234-.883 1.76 1.76 0 00-.375-.594 1.33 1.33 0 00-.515-.336 1.822 1.822 0 00-.649-.109c-.292 0-.552.057-.781.172a1.4 1.4 0 00-.578.531c-.157.245-.276.568-.36.969a7.608 7.608 0 00-.117 1.445v2.406c0 .459.026.862.078 1.211.052.349.13.649.235.899.104.245.229.448.375.609.151.156.323.271.515.344.198.073.414.109.649.109.297 0 .56-.057.789-.172a1.44 1.44 0 00.578-.546c.156-.256.273-.586.351-.993a7.77 7.77 0 00.118-1.461zm11.117-6.859v1.031L883.461 347h-1.984l4.539-9.875h-5.891v-1.5h7.883zm9.164 9.875v1.5h-7.625v-1.289l3.703-4.039c.406-.458.727-.854.961-1.188.234-.333.398-.632.492-.898.099-.271.149-.534.149-.789 0-.359-.068-.675-.204-.945a1.48 1.48 0 00-.578-.649c-.255-.161-.565-.242-.929-.242-.422 0-.776.091-1.063.273a1.716 1.716 0 00-.648.758 2.593 2.593 0 00-.219 1.094h-1.883c0-.662.151-1.266.453-1.813.302-.552.74-.989 1.313-1.312.573-.328 1.263-.492 2.07-.492.76 0 1.406.127 1.938.383.531.255.934.617 1.21 1.086.282.468.422 1.023.422 1.664 0 .354-.057.705-.172 1.054a4.942 4.942 0 01-.492 1.047c-.208.344-.455.69-.742 1.039-.286.344-.601.693-.945 1.047l-2.461 2.711h5.25zm49.39 42.398c0 .709-.164 1.305-.492 1.79a3.085 3.085 0 01-1.343 1.101c-.563.245-1.198.367-1.907.367-.708 0-1.346-.122-1.914-.367a3.094 3.094 0 01-1.344-1.101c-.328-.485-.492-1.081-.492-1.79a2.868 2.868 0 011.047-2.265 3.65 3.65 0 011.188-.649 4.766 4.766 0 011.5-.226c.718 0 1.362.133 1.929.398.568.266 1.013.633 1.336 1.102.328.469.492 1.015.492 1.64zm-1.89-.093c0-.381-.078-.714-.234-1a1.647 1.647 0 00-.657-.664 1.97 1.97 0 00-.976-.235c-.375 0-.701.078-.977.235a1.65 1.65 0 00-.648.664 2.11 2.11 0 00-.227 1c0 .385.076.718.227 1 .151.276.367.487.648.633.281.145.612.218.992.218.381 0 .709-.073.985-.218.276-.146.489-.357.64-.633.151-.282.227-.615.227-1zm1.633-5.188c0 .568-.151 1.073-.453 1.516-.297.443-.709.791-1.235 1.047-.526.25-1.125.375-1.797.375-.677 0-1.281-.125-1.812-.375a3.113 3.113 0 01-1.242-1.047 2.659 2.659 0 01-.446-1.516c0-.677.149-1.247.446-1.711a2.901 2.901 0 011.242-1.07c.526-.245 1.127-.367 1.804-.367.678 0 1.279.122 1.805.367s.938.602 1.235 1.07c.302.464.453 1.034.453 1.711zm-1.883.063c0-.339-.068-.636-.203-.891a1.461 1.461 0 00-.555-.609 1.605 1.605 0 00-.852-.219c-.328 0-.611.07-.851.211a1.41 1.41 0 00-.555.594c-.13.255-.195.56-.195.914 0 .349.065.653.195.914.13.255.315.455.555.601.245.146.531.219.859.219.328 0 .612-.073.852-.219.239-.146.424-.346.555-.601.13-.261.195-.565.195-.914zm11.234 5.218c0 .709-.164 1.305-.492 1.79a3.082 3.082 0 01-1.344 1.101c-.562.245-1.198.367-1.906.367s-1.346-.122-1.914-.367a3.082 3.082 0 01-1.344-1.101c-.328-.485-.492-1.081-.492-1.79a2.868 2.868 0 011.047-2.265 3.635 3.635 0 011.187-.649 4.775 4.775 0 011.5-.226c.719 0 1.362.133 1.93.398.568.266 1.013.633 1.336 1.102.328.469.492 1.015.492 1.64zm-1.89-.093c0-.381-.078-.714-.235-1a1.638 1.638 0 00-.656-.664 1.97 1.97 0 00-.977-.235c-.375 0-.7.078-.976.235a1.66 1.66 0 00-.649.664 2.11 2.11 0 00-.226 1c0 .385.075.718.226 1 .151.276.368.487.649.633.281.145.612.218.992.218s.708-.073.984-.218c.276-.146.49-.357.641-.633.151-.282.227-.615.227-1zm1.632-5.188c0 .568-.151 1.073-.453 1.516a3.055 3.055 0 01-1.234 1.047c-.526.25-1.125.375-1.797.375-.677 0-1.281-.125-1.812-.375a3.116 3.116 0 01-1.243-1.047 2.658 2.658 0 01-.445-1.516c0-.677.148-1.247.445-1.711a2.904 2.904 0 011.243-1.07c.526-.245 1.127-.367 1.804-.367s1.279.122 1.805.367.937.602 1.234 1.07c.302.464.453 1.034.453 1.711zm-1.882.063c0-.339-.068-.636-.204-.891a1.465 1.465 0 00-.554-.609 1.608 1.608 0 00-.852-.219c-.328 0-.612.07-.851.211a1.41 1.41 0 00-.555.594c-.13.255-.195.56-.195.914 0 .349.065.653.195.914.13.255.315.455.555.601.244.146.531.219.859.219.328 0 .612-.073.852-.219.239-.146.424-.346.554-.601a2.01 2.01 0 00.196-.914zm11.211 1.679v1.86c0 .89-.089 1.651-.266 2.281-.172.625-.422 1.133-.75 1.523a2.934 2.934 0 01-1.18.86 4.055 4.055 0 01-1.523.273c-.448 0-.865-.057-1.25-.172a3.038 3.038 0 01-1.031-.539 3.195 3.195 0 01-.789-.945 5.26 5.26 0 01-.5-1.398 9.15 9.15 0 01-.172-1.883v-1.86c0-.895.088-1.651.265-2.265.177-.62.43-1.123.758-1.508a2.884 2.884 0 011.172-.852 4.22 4.22 0 011.531-.265c.453 0 .87.057 1.25.172.386.109.729.283 1.031.523.308.24.568.552.782.938.218.38.385.841.5 1.382.114.537.172 1.162.172 1.875zm-1.883 2.125v-2.406a8.08 8.08 0 00-.078-1.195 3.55 3.55 0 00-.235-.883 1.76 1.76 0 00-.375-.594 1.33 1.33 0 00-.515-.336 1.822 1.822 0 00-.649-.109c-.291 0-.552.057-.781.172a1.4 1.4 0 00-.578.531c-.156.245-.276.568-.36.969a7.608 7.608 0 00-.117 1.445v2.406c0 .459.026.862.078 1.211.052.349.131.649.235.899.104.245.229.448.375.609.151.156.323.271.515.344.198.073.414.109.649.109.297 0 .56-.057.789-.172a1.44 1.44 0 00.578-.546c.156-.256.273-.586.352-.993.078-.406.117-.893.117-1.461zm8.703-6.898V391h-1.883v-9.18l-2.789.946v-1.555l4.445-1.625h.227zm6.164 4.875h1.125c.437 0 .799-.076 1.086-.227a1.47 1.47 0 00.648-.625c.141-.265.211-.57.211-.914 0-.359-.065-.666-.195-.922a1.318 1.318 0 00-.578-.601c-.255-.141-.581-.211-.977-.211-.333 0-.635.068-.906.203-.266.13-.477.318-.633.563a1.538 1.538 0 00-.234.859h-1.891c0-.604.159-1.141.477-1.609.317-.469.75-.836 1.297-1.102.552-.271 1.171-.406 1.859-.406.734 0 1.375.122 1.922.367.552.24.982.599 1.289 1.078.307.479.461 1.073.461 1.781 0 .323-.076.651-.227.985a2.86 2.86 0 01-.672.914 3.495 3.495 0 01-1.109.664c-.443.166-.956.25-1.539.25h-1.414v-1.047zm0 1.469v-1.032h1.414c.667 0 1.234.079 1.703.235.474.156.86.372 1.156.648.297.271.513.581.649.93.14.349.211.719.211 1.109 0 .532-.097 1.006-.289 1.422a2.882 2.882 0 01-.805 1.047 3.586 3.586 0 01-1.227.649 5.047 5.047 0 01-1.515.218c-.49 0-.959-.067-1.406-.203a3.853 3.853 0 01-1.204-.601 2.982 2.982 0 01-.843-1.008c-.203-.406-.305-.875-.305-1.406h1.883c0 .338.078.638.234.898.162.255.386.456.672.602.292.145.625.218 1 .218.396 0 .737-.07 1.023-.211.287-.14.506-.349.657-.625.156-.276.234-.609.234-1 0-.442-.086-.802-.258-1.078a1.513 1.513 0 00-.734-.609c-.318-.136-.693-.203-1.125-.203h-1.125zM1035.7 128.5v1.5h-7.62v-1.289l3.7-4.039c.41-.458.73-.854.96-1.188.24-.333.4-.632.49-.898.1-.271.15-.534.15-.789 0-.359-.06-.675-.2-.945a1.46 1.46 0 00-.58-.649c-.25-.161-.56-.242-.93-.242-.42 0-.77.091-1.06.273-.29.183-.5.435-.65.758-.14.318-.22.682-.22 1.094h-1.88c0-.662.15-1.266.45-1.813.3-.552.74-.989 1.31-1.312.58-.328 1.27-.492 2.08-.492.76 0 1.4.127 1.93.383.53.255.94.617 1.21 1.086.28.468.43 1.023.43 1.664 0 .354-.06.705-.18 1.054-.11.349-.27.698-.49 1.047-.21.344-.45.69-.74 1.039-.29.344-.6.693-.95 1.047l-2.46 2.711h5.25zm8.89-5.141v1.86c0 .89-.09 1.651-.27 2.281-.17.625-.42 1.133-.75 1.523a2.94 2.94 0 01-1.18.86c-.45.182-.96.273-1.52.273-.45 0-.87-.057-1.25-.172a2.97 2.97 0 01-1.03-.539c-.31-.244-.57-.56-.79-.945-.22-.391-.38-.857-.5-1.398a8.778 8.778 0 01-.18-1.883v-1.86c0-.895.09-1.651.27-2.265.18-.62.43-1.123.76-1.508.33-.391.72-.675 1.17-.852.46-.177.97-.265 1.53-.265.45 0 .87.057 1.25.172a2.943 2.943 0 011.81 1.461c.22.38.39.841.5 1.382.12.537.18 1.162.18 1.875zm-1.89 2.125v-2.406c0-.453-.02-.851-.08-1.195a3.651 3.651 0 00-.23-.883c-.1-.245-.22-.443-.37-.594a1.432 1.432 0 00-.52-.336 1.816 1.816 0 00-.65-.109c-.29 0-.55.057-.78.172-.23.109-.42.286-.58.531-.15.245-.27.568-.36.969-.08.396-.11.877-.11 1.445v2.406c0 .459.02.862.07 1.211.06.349.13.649.24.899.1.245.23.448.37.609.15.156.33.271.52.344.2.073.41.109.65.109.29 0 .56-.057.79-.172.23-.114.42-.296.57-.546.16-.256.28-.586.36-.993.07-.406.11-.893.11-1.461zm11.4.461v1.5h-8.2l-.06-1.133 4.9-7.687h1.51l-1.63 2.797-2.82 4.523h6.3zm-1.42-7.32V130h-1.88v-11.375h1.88zm7.82-.039V130h-1.88v-9.18l-2.79.946v-1.555l4.44-1.625h.23zm11.79 7.359v1.5h-8.2l-.07-1.133 4.91-7.687h1.51l-1.64 2.797-2.82 4.523h6.31zm-1.42-7.32V130h-1.89v-11.375h1.89zm4.65 6.086l-1.5-.367.62-5.719h6.13v1.594h-4.57l-.31 2.789c.18-.104.42-.206.73-.305a3.44 3.44 0 011.08-.156c.53 0 1.01.088 1.43.265.43.172.79.425 1.09.758.3.328.52.729.68 1.203.15.469.23.998.23 1.586 0 .526-.08 1.019-.23 1.477-.15.458-.38.862-.69 1.211-.31.349-.69.622-1.16.82-.47.193-1.02.289-1.65.289-.48 0-.93-.067-1.37-.203a3.693 3.693 0 01-1.16-.617 3.095 3.095 0 01-.83-1.016 3.435 3.435 0 01-.36-1.398h1.84c.05.37.15.685.31.945.16.255.37.451.64.586.26.136.57.203.92.203.32 0 .59-.054.82-.164.23-.114.42-.276.57-.484.16-.214.27-.464.34-.75.08-.287.12-.604.12-.953 0-.334-.04-.638-.13-.914a1.96 1.96 0 00-.38-.719 1.65 1.65 0 00-.64-.469 2.126 2.126 0 00-.88-.172c-.45 0-.79.065-1.03.196-.23.13-.45.291-.66.484z" fill="#5E5E5E"/><rect x=".5" y=".5" width="1119" height="709" rx="19.5" stroke="#60B3A3"/></svg>